<svg version="1.1" id="Layer_1" xmlns="http://www.w3.org/2000/svg" xmlns:xlink="http://www.w3.org/1999/xlink" x="0px" y="0px"
	 width="100%" viewBox="0 0 5998 1116" enable-background="new 0 0 5998 1116" xml:space="preserve">
<path fill="#FEFFFF" opacity="1.000000" stroke="none" 
	d="
M1.999998,936.000000 
	C2.000000,624.884460 2.000000,313.768860 2.000000,2.000000 
	C73.397469,2.000000 144.796921,2.000000 217.093689,2.398402 
	C217.991013,2.796805 217.991119,3.593660 217.227997,3.897935 
	C210.916901,5.197080 205.351334,6.103217 199.823807,7.200973 
	C158.596252,15.388702 124.127968,35.592999 96.087021,66.620628 
	C81.931061,82.284363 70.987610,100.067139 64.262070,120.322716 
	C55.611305,146.376572 54.225494,173.187729 56.102345,200.193359 
	C58.006134,227.586670 66.035164,253.659363 75.449463,279.299622 
	C101.738594,350.899170 133.148560,420.184570 169.390656,487.295013 
	C177.598358,502.493378 181.242844,519.084412 181.530746,536.160889 
	C181.887848,557.341309 176.991272,577.545105 168.334290,596.969788 
	C156.903687,622.617981 142.142868,646.334900 126.676559,669.592712 
	C98.857315,711.426392 69.823296,752.471680 45.125031,796.303406 
	C28.909712,825.080627 14.802670,854.668152 10.780088,888.062561 
	C8.884789,903.796814 15.387576,911.557739 27.365427,915.927979 
	C29.854511,916.836243 32.441921,917.535400 35.036037,918.085693 
	C55.918201,922.515747 76.780106,920.387451 97.447853,916.959167 
	C159.754639,906.623901 219.078323,886.213257 277.344238,862.469727 
	C280.772736,861.072632 283.695282,857.967224 286.293427,855.142029 
	C288.505310,852.736572 289.858215,849.554871 291.678833,846.774048 
	C323.568878,798.065125 355.616821,749.455566 383.382294,698.199219 
	C403.734375,660.628296 421.334167,622.007629 427.265381,579.177856 
	C429.321289,564.331787 429.326935,549.346313 426.389404,534.504272 
	C421.911133,511.877777 413.942078,490.349365 404.762360,469.344330 
	C391.319824,438.585327 377.585297,407.928131 362.957367,377.720398 
	C348.762878,348.407684 334.314728,319.126129 318.130127,290.890045 
	C293.161652,247.329407 273.082275,201.965118 261.314392,153.104492 
	C254.256439,123.799591 250.984863,94.260071 258.203766,64.400345 
	C262.982391,44.634285 272.253174,27.912735 290.015198,16.801950 
	C293.884003,14.381864 297.509644,11.573092 302.650665,7.955923 
	C294.714874,6.261542 288.361359,4.904997 282.008789,3.161325 
	C282.009735,2.774197 282.000000,2.000000 282.000000,2.000000 
	C2188.000000,2.000000 4094.000000,2.000000 6000.000000,2.000000 
	C6000.000000,51.543232 6000.000000,100.869804 5999.071289,150.961807 
	C5870.519531,151.709732 5742.896973,151.687592 5615.273926,151.704788 
	C5612.441895,151.705170 5609.609863,152.153748 5606.960938,152.377777 
	C5606.960938,189.169617 5606.960938,224.992096 5606.960938,261.927612 
	C5650.027344,261.927612 5692.471191,261.927612 5735.677734,261.927612 
	C5735.677734,288.302521 5735.677734,313.563873 5735.677734,338.825226 
	C5735.677734,364.149902 5735.677734,389.474548 5735.677734,414.799225 
	C5735.677734,439.790680 5735.677734,464.782135 5735.677734,489.773590 
	C5735.677734,515.098267 5735.642090,540.423035 5735.687500,565.747620 
	C5735.732910,590.887329 5735.481934,616.035217 5735.847168,640.974365 
	C5782.146973,640.974365 5826.954102,640.974365 5872.554688,640.974365 
	C5872.554688,514.422791 5872.554688,388.579987 5872.554688,262.501373 
	C5874.548828,262.152954 5875.805664,261.739990 5877.061523,261.741882 
	C5918.041016,261.803284 5959.020508,261.904602 6000.000000,262.000000 
	C6000.000000,547.298645 6000.000000,832.597229 6000.000000,1118.000000 
	C4083.934570,1118.000000 2167.869141,1118.000000 251.360596,1117.334595 
	C292.355377,1112.020142 332.512421,1101.673828 372.133148,1089.097778 
	C418.107391,1074.505127 463.133667,1057.254517 506.877930,1037.026001 
	C548.199036,1017.917969 589.124390,997.853760 629.470398,976.768433 
	C661.858215,959.842041 693.390503,941.213440 724.773254,922.454956 
	C742.499634,911.859253 760.782349,902.606201 774.720825,885.593567 
	C797.525269,857.759827 810.746765,827.002747 813.700745,791.501221 
	C816.958923,752.344910 810.771973,714.622009 795.661438,678.417236 
	C788.905823,662.230713 781.375061,646.384949 770.769836,631.710999 
	C768.189209,633.514465 766.022827,635.002991 763.882568,636.528198 
	C744.382874,650.423767 725.270020,664.903748 705.312256,678.106628 
	C662.867615,706.185547 619.747070,733.246948 574.144836,755.990906 
	C524.752441,780.625305 475.574615,805.787476 425.368439,828.668396 
	C360.993286,858.006531 295.815094,885.687866 229.127426,909.426758 
	C178.394943,927.486023 126.855194,942.548645 72.597458,946.663452 
	C51.542442,948.260193 31.656296,946.716614 12.300586,938.267334 
	C9.139524,936.887390 5.446923,936.725098 1.999998,936.000000 
M5175.583008,640.854004 
	C5175.837891,637.233215 5176.313965,633.612427 5176.314453,629.991516 
	C5176.351562,474.559753 5176.347168,319.127991 5176.343262,163.696228 
	C5176.342773,160.701263 5176.476562,157.687500 5176.166016,154.722229 
	C5176.067871,153.779434 5174.731934,152.965927 5172.120605,151.742416 
	C5128.834961,151.866272 5085.548828,151.989243 5042.263184,152.134232 
	C5041.992676,152.135132 5041.693359,152.410690 5041.461426,152.618454 
	C5041.216797,152.837891 5041.037598,153.129852 5039.898438,154.556274 
	C5039.898438,243.693527 5039.898438,334.000397 5039.898438,425.007599 
	C5038.492188,423.942932 5037.872559,423.680420 5037.565918,423.213013 
	C5015.499023,389.550476 4993.445312,355.879791 4971.416992,322.192169 
	C4935.736328,267.625183 4899.998535,213.095001 4864.525879,158.392853 
	C4861.186035,153.242386 4857.539062,151.524002 4851.601562,151.557220 
	C4811.631348,151.780823 4771.659668,151.660034 4731.688477,151.705246 
	C4729.057617,151.708221 4726.426758,152.161209 4722.430176,153.311401 
	C4722.286621,156.962158 4722.019531,160.612869 4722.018066,164.263672 
	C4721.992188,225.898514 4722.000000,287.533356 4722.000000,349.168182 
	C4722.000000,442.786530 4721.981934,536.404846 4722.071777,630.023193 
	C4722.074707,633.466431 4723.132812,636.908691 4725.011719,641.444214 
	C4769.556152,641.444214 4814.100098,641.444214 4859.678711,641.444214 
	C4859.678711,628.016602 4859.679199,615.445190 4859.679199,602.873779 
	C4859.679199,589.878052 4859.679199,576.882385 4859.679199,563.886658 
	C4859.679199,551.224182 4859.679199,538.561707 4859.679199,525.899231 
	C4859.679199,512.903503 4859.679199,499.907806 4859.679199,486.912109 
	C4859.679199,474.249634 4859.679199,461.587128 4859.679199,448.924652 
	C4859.679199,435.928955 4859.543945,422.931427 4859.717285,409.938049 
	C4859.881836,397.563477 4858.957031,385.134674 4860.499023,370.855194 
	C4921.204102,462.335144 4980.774902,552.106201 5040.219238,641.686646 
	C5071.020996,641.686646 5101.005859,641.731262 5130.990723,641.667236 
	C5145.307617,641.636658 5159.624512,641.399780 5175.583008,640.854004 
M333.095917,263.747711 
	C336.460388,270.211639 341.948425,274.337769 348.125061,277.886566 
	C368.309753,289.483734 388.623260,300.877777 408.499298,312.986725 
	C457.656219,342.934235 506.840912,372.883484 553.661987,406.436859 
	C590.148010,432.583771 626.663818,458.737549 662.227051,486.108704 
	C692.006348,509.028259 719.738647,534.422485 746.063660,561.375183 
	C763.300964,579.023499 780.022522,597.084106 793.627747,617.580811 
	C819.984070,657.287292 835.832886,700.918518 840.484863,748.609619 
	C843.833069,782.934998 840.433350,816.201233 828.064209,848.468872 
	C826.813049,851.732910 825.774536,855.078491 824.154785,859.790161 
	C827.355835,858.111877 829.156006,857.361023 830.751526,856.301941 
	C848.773682,844.339539 866.846741,832.451233 884.745422,820.306152 
	C916.448792,798.794128 946.514648,775.114929 973.916138,748.376343 
	C991.282410,731.430176 1006.546509,712.386780 1018.913330,691.354309 
	C1035.373413,663.360352 1045.290894,633.728271 1042.549683,600.463501 
	C1041.164185,583.649597 1037.369385,567.695251 1031.312500,552.162415 
	C1014.563171,509.209076 986.654175,473.447754 955.532654,440.547363 
	C906.585205,388.802063 854.264221,340.541656 798.892639,295.564087 
	C737.364380,245.585526 673.646790,198.715942 606.988831,155.842850 
	C545.379333,116.216835 481.981598,79.798386 415.714874,48.411926 
	C394.831635,38.520836 373.774567,30.123142 350.467102,28.561979 
	C337.680603,27.705526 325.194305,28.975054 313.397949,34.109367 
	C292.363190,43.264633 283.814758,61.038883 281.961761,82.476570 
	C279.652771,109.189362 283.518890,135.274826 291.123962,160.996567 
	C301.535919,196.211868 315.911133,229.742798 333.095917,263.747711 
M2405.012451,151.670975 
	C2396.134277,151.670975 2387.255859,151.670975 2377.411133,151.670975 
	C2377.411133,243.243500 2377.411133,333.565521 2377.411133,425.832489 
	C2375.267578,423.186035 2374.389648,422.278687 2373.712158,421.240570 
	C2359.162842,398.949127 2344.650391,376.633392 2330.101562,354.341614 
	C2288.083008,289.961823 2245.946533,225.658386 2204.177734,161.116989 
	C2199.703369,154.203369 2195.102783,151.334198 2186.640625,151.447189 
	C2148.321045,151.958923 2109.990723,151.671036 2071.664307,151.671036 
	C2068.123535,151.671036 2064.582764,151.671036 2061.270020,151.671036 
	C2059.063477,170.382523 2059.893799,634.289795 2061.968994,641.151917 
	C2106.857666,641.151917 2151.730225,641.151917 2197.814941,641.151917 
	C2197.814941,551.665161 2197.814941,462.706055 2197.814941,373.746918 
	C2200.770996,375.252350 2202.140625,377.021515 2203.373779,378.881348 
	C2259.855957,464.066254 2316.358887,549.237610 2372.713623,634.506836 
	C2375.929688,639.372864 2379.179199,641.891235 2385.443359,641.843750 
	C2425.433594,641.540161 2465.427734,641.702454 2505.420410,641.656555 
	C2507.959717,641.653625 2510.498535,641.188416 2513.178223,640.924438 
	C2513.178223,477.752106 2513.178223,315.257965 2513.178223,151.670822 
	C2477.459961,151.670822 2442.233643,151.670822 2405.012451,151.670975 
M1565.003418,361.672852 
	C1554.437988,361.672852 1543.872559,361.672852 1532.822876,361.672852 
	C1532.822876,394.910614 1532.822876,427.054077 1532.822876,460.122345 
	C1577.568848,460.714600 1621.888916,459.920502 1667.679321,460.575958 
	C1655.357788,486.696533 1638.392456,505.494995 1613.135010,515.737671 
	C1583.256836,527.854248 1552.759644,526.691711 1522.197510,518.431885 
	C1491.257446,510.069885 1468.986450,490.728394 1456.891113,461.584381 
	C1440.515015,422.126770 1439.432129,381.449158 1453.895508,340.958069 
	C1463.511108,314.038696 1481.225098,294.032013 1507.659546,282.436279 
	C1525.713623,274.516754 1544.797974,272.769440 1564.289917,274.003143 
	C1592.044067,275.759796 1614.937744,286.786743 1631.459717,309.558075 
	C1634.343994,313.533203 1637.779663,313.712128 1641.849365,313.708832 
	C1685.835449,313.673279 1729.821655,313.696503 1773.807739,313.651672 
	C1775.947632,313.649506 1778.086914,313.165375 1780.571533,312.863770 
	C1780.249268,309.823059 1780.246704,307.475769 1779.728394,305.248535 
	C1768.229858,255.848495 1742.011597,216.320663 1700.265747,187.317871 
	C1664.252930,162.298233 1623.415649,151.568100 1580.418335,148.480057 
	C1544.800415,145.921982 1509.429932,148.048050 1474.694946,157.665115 
	C1431.122803,169.728867 1394.141602,192.494888 1364.537842,226.357895 
	C1328.750977,267.293457 1310.559937,315.941956 1306.438354,369.833923 
	C1304.149536,399.761017 1305.390015,429.607483 1311.862671,459.104645 
	C1323.053101,510.102264 1347.393433,553.443970 1386.953613,587.760315 
	C1427.682373,623.090515 1475.995605,639.701721 1529.093628,643.601746 
	C1549.666992,645.112793 1570.257690,644.774170 1590.836914,642.407593 
	C1629.869751,637.918762 1665.742798,625.241760 1698.307739,603.078552 
	C1732.011475,580.140320 1758.189087,550.495117 1777.239746,514.658447 
	C1781.496826,506.650269 1786.461670,498.575623 1786.409790,488.644745 
	C1786.201050,448.658447 1786.335693,408.670380 1786.284790,368.683075 
	C1786.281982,366.489502 1785.749512,364.296600 1785.407471,361.672760 
	C1712.225952,361.672760 1639.614258,361.672760 1565.003418,361.672852 
M3885.757080,416.813324 
	C3898.480469,404.814270 3908.627197,390.960327 3915.901855,375.026489 
	C3931.254395,341.399841 3933.689941,306.361694 3925.493408,270.796295 
	C3916.693115,232.613724 3896.223389,202.199249 3862.493164,180.991745 
	C3830.198975,160.687073 3794.593994,152.261490 3757.210693,151.885010 
	C3684.904541,151.156830 3612.585938,151.663315 3540.272461,151.709030 
	C3537.770264,151.710602 3535.268555,152.258041 3532.921387,152.532959 
	C3532.921387,315.806976 3532.921387,478.272278 3532.921387,641.032593 
	C3578.630615,641.032593 3623.734863,641.032593 3669.971924,641.032593 
	C3669.971924,580.943726 3669.971924,521.501587 3669.971924,462.072144 
	C3675.059326,462.072144 3679.008301,462.072144 3683.172363,462.072144 
	C3714.028320,519.329163 3744.855957,576.339966 3775.393555,633.505798 
	C3778.377686,639.091980 3781.296875,641.912781 3788.160400,641.862549 
	C3833.812012,641.527893 3879.467529,641.694885 3925.121582,641.669861 
	C3927.247803,641.668640 3929.373779,641.392090 3933.122803,641.130554 
	C3896.162842,576.901001 3859.981934,514.025452 3823.852051,451.238403 
	C3835.224121,446.302551 3845.968018,442.549927 3855.787842,437.124756 
	C3865.907959,431.533875 3875.128174,424.313873 3885.757080,416.813324 
M3282.986328,151.671494 
	C3240.370361,151.671494 3197.754395,151.671494 3154.537109,151.671494 
	C3095.597656,313.512817 3036.826660,474.879272 2978.119873,636.268982 
	C2977.594482,637.712891 2977.920898,639.466736 2977.836914,641.358765 
	C3025.174072,641.358765 3072.106689,641.358765 3119.659180,641.358765 
	C3128.547363,614.867188 3137.401855,588.476501 3146.205322,562.237183 
	C3204.191895,562.237183 3261.393555,562.237183 3318.647217,562.237183 
	C3327.381348,588.849426 3335.958740,614.984009 3344.592041,641.288452 
	C3392.755371,641.288452 3440.292236,641.288452 3487.849854,641.288452 
	C3487.446045,633.721619 3318.318604,166.632141 3310.597168,151.671371 
	C3302.259766,151.671371 3293.618164,151.671371 3282.986328,151.671494 
M4410.160645,472.938995 
	C4402.384277,451.726013 4394.556152,430.531891 4386.841309,409.296600 
	C4361.773438,340.294464 4336.777344,271.266144 4311.682617,202.273666 
	C4305.576172,185.485382 4299.198242,168.795609 4292.916504,151.983093 
	C4240.417480,151.983093 4188.498047,151.983093 4135.862793,151.983093 
	C4076.614258,314.810333 4017.372314,477.618805 3957.830078,641.253052 
	C4006.398682,641.253052 4053.591797,641.253052 4100.964355,641.253052 
	C4110.064453,614.598633 4119.056152,588.262939 4128.001465,562.062500 
	C4185.744629,562.062500 4242.650391,562.062500 4300.161621,562.062500 
	C4308.845215,588.655640 4317.480469,615.100098 4325.947754,641.030273 
	C4374.709961,641.030273 4422.445312,641.030273 4471.145996,641.030273 
	C4450.730957,584.911011 4430.640625,529.683777 4410.160645,472.938995 
M5253.677734,587.000000 
	C5253.677734,604.900024 5253.677734,622.800049 5253.677734,641.181946 
	C5358.233887,641.181946 5461.702148,641.181946 5565.723145,641.181946 
	C5565.723145,604.645020 5565.723145,568.560303 5565.723145,531.674438 
	C5550.539062,531.674438 5535.944336,531.674438 5521.349609,531.674438 
	C5507.019043,531.674438 5492.688477,531.674438 5478.357910,531.674438 
	C5463.694336,531.674438 5449.029785,531.728577 5434.366699,531.659058 
	C5419.859863,531.590332 5405.333496,531.964966 5391.012695,531.437073 
	C5389.090820,510.012909 5389.881836,451.608398 5392.314453,443.920288 
	C5443.223633,443.920288 5494.405273,443.920288 5545.477051,443.920288 
	C5547.421875,426.783112 5546.726562,347.846649 5544.408691,339.972412 
	C5493.517578,339.972412 5442.354980,339.972412 5390.881348,339.972412 
	C5390.881348,313.590942 5390.881348,288.111267 5390.881348,261.453674 
	C5449.539062,261.453674 5507.650391,261.453674 5565.817383,261.453674 
	C5565.817383,224.400269 5565.817383,188.530563 5565.817383,152.740753 
	C5553.020020,150.816864 5261.275391,151.297302 5253.677246,153.309372 
	C5253.677246,297.117767 5253.677246,441.058899 5253.677734,587.000000 
M2829.682861,577.000000 
	C2829.682861,472.170776 2829.682861,367.341553 2829.682861,261.736450 
	C2873.592285,261.593994 2916.349365,261.811554 2959.121582,261.608215 
	C2959.121582,224.297760 2959.121582,188.455734 2959.121582,152.306808 
	C2827.172119,152.306808 2695.784912,152.306808 2564.469238,152.306808 
	C2562.552246,169.642990 2563.269531,254.161118 2565.601074,262.094421 
	C2607.440918,262.094421 2649.573242,262.094421 2692.311523,262.094421 
	C2692.311523,294.662476 2692.311768,326.267548 2692.311768,357.872620 
	C2692.311768,389.191498 2692.311768,420.510376 2692.311768,451.829254 
	C2692.311768,483.481293 2692.224121,515.133667 2692.336182,546.785339 
	C2692.447754,578.261536 2691.835938,609.753296 2692.711182,641.096069 
	C2719.208984,643.177673 2822.219482,642.216248 2829.682861,639.792725 
	C2829.682861,619.623901 2829.682861,599.311951 2829.682861,577.000000 
M1859.151367,151.676483 
	C1855.589600,151.676483 1852.027710,151.676483 1848.389404,151.676483 
	C1848.389404,315.539246 1848.389404,478.241760 1848.389404,641.069641 
	C1893.906494,641.069641 1938.711304,641.069641 1983.627319,641.069641 
	C1983.627319,477.730774 1983.627319,315.006714 1983.627319,151.676376 
	C1942.327759,151.676376 1901.721558,151.676376 1859.151367,151.676483 
M2664.628906,926.016724 
	C2665.194824,923.882019 2666.259277,921.746155 2666.254150,919.612854 
	C2666.127197,866.626831 2665.895996,813.640991 2665.623047,760.655579 
	C2665.614990,759.132874 2664.953125,757.613647 2664.497314,755.671387 
	C2655.455322,755.671387 2646.797363,755.921631 2638.163574,755.572510 
	C2633.394531,755.379700 2631.170410,757.538025 2628.925293,761.417053 
	C2617.258545,781.574768 2605.291748,801.559448 2593.377930,821.573547 
	C2585.971191,834.016846 2578.472412,846.405579 2570.162354,860.238159 
	C2548.572754,824.577271 2527.794189,790.256226 2507.320801,756.439209 
	C2495.714355,756.439209 2484.903564,756.439209 2474.347900,756.439209 
	C2474.347900,813.371094 2474.347900,869.530701 2474.347900,925.742554 
	C2486.526367,925.742554 2498.018799,925.742554 2510.432617,925.742554 
	C2510.432617,893.741638 2510.432617,862.312927 2510.432617,830.884277 
	C2513.433838,832.372437 2514.972412,834.269531 2516.231445,836.336731 
	C2528.177490,855.949158 2539.991699,875.642090 2552.016602,895.205811 
	C2560.459717,908.941895 2560.579590,908.874146 2577.160889,908.144287 
	C2577.798828,908.116211 2578.422607,907.763306 2579.384521,907.455688 
	C2594.986084,881.373474 2610.720215,855.069641 2626.454346,828.765808 
	C2627.196533,828.997803 2627.938965,829.229736 2628.681152,829.461731 
	C2628.681152,861.570923 2628.681152,893.680115 2628.681152,926.280212 
	C2640.729736,926.280212 2651.710693,926.280212 2664.628906,926.016724 
M3639.700928,900.973145 
	C3639.700928,883.985901 3639.917969,866.994446 3639.592285,850.013428 
	C3639.466064,843.428101 3638.686279,836.733215 3637.197510,830.321960 
	C3634.229248,817.536194 3627.573975,806.830750 3615.924316,800.250732 
	C3594.203613,787.982483 3566.744141,790.489136 3547.171143,804.678162 
	C3544.049316,806.941284 3541.330811,809.761292 3538.693115,812.088318 
	C3512.237793,786.014587 3484.381104,787.321228 3455.024414,806.189087 
	C3454.490479,801.887207 3454.061035,798.429016 3453.552490,794.330811 
	C3441.008057,794.363342 3428.894531,794.049500 3416.872559,794.523560 
	C3416.872559,839.093567 3416.872559,882.261047 3416.872559,925.721375 
	C3429.908447,925.721375 3442.362061,925.721375 3455.700928,925.721375 
	C3455.700928,921.859375 3455.700928,918.600159 3455.700928,915.340881 
	C3455.701172,897.354187 3455.662598,879.367432 3455.718018,861.380920 
	C3455.745117,852.622986 3456.826416,844.080444 3462.350098,836.809082 
	C3469.076660,827.954163 3478.366455,825.155334 3488.894043,826.682739 
	C3499.352051,828.199951 3505.083008,835.239197 3507.397461,845.104858 
	C3508.221191,848.617188 3508.249268,852.367310 3508.262695,856.010254 
	C3508.338379,876.661377 3508.277100,897.312866 3508.328125,917.964111 
	C3508.334473,920.524353 3508.729492,923.083679 3508.943848,925.638062 
	C3522.049072,925.638062 3534.501953,925.638062 3547.700684,925.638062 
	C3547.700684,922.001953 3547.700928,919.064392 3547.700928,916.126831 
	C3547.701172,897.473999 3547.472656,878.816711 3547.834961,860.170959 
	C3547.949463,854.291016 3548.798340,848.133545 3550.795898,842.643250 
	C3554.890869,831.386780 3567.965576,824.571655 3580.002441,826.413513 
	C3591.366699,828.152466 3599.274902,837.398926 3600.245605,850.194824 
	C3600.421387,852.513794 3600.297607,854.856079 3600.297852,857.187622 
	C3600.300537,877.505859 3600.275879,897.824219 3600.329834,918.142334 
	C3600.336670,920.692627 3600.752686,923.241821 3601.025635,926.315979 
	C3614.166504,926.214783 3626.638184,926.681885 3639.700684,926.010376 
	C3639.700684,917.524170 3639.700684,910.241211 3639.700928,900.973145 
M4657.745117,596.092468 
	C4657.991211,594.783997 4658.201172,593.467468 4658.489258,592.168335 
	C4662.805176,572.730347 4659.958496,554.535278 4648.755859,537.930725 
	C4636.678223,520.030029 4619.210938,510.242767 4598.364258,507.143585 
	C4571.608887,503.165955 4546.466797,506.363586 4524.019531,524.083374 
	C4493.141602,548.458191 4491.541504,604.730652 4524.992676,629.827332 
	C4537.937500,639.539246 4552.169922,644.460571 4567.980469,646.699341 
	C4605.794434,652.053650 4643.710938,634.778320 4657.745117,596.092468 
M4164.486816,917.797424 
	C4179.443359,877.073730 4194.475586,836.376587 4208.918945,794.773865 
	C4196.674805,794.773865 4185.800293,794.773865 4174.601074,794.773865 
	C4164.269531,823.397034 4154.050293,851.708069 4143.090332,882.072632 
	C4132.204590,851.404358 4122.107422,822.958374 4111.934082,794.296082 
	C4102.940918,794.296082 4094.609131,794.688660 4086.335693,794.163513 
	C4080.425049,793.788330 4078.153076,796.601440 4076.421631,801.569519 
	C4069.533203,821.334106 4062.432129,841.025330 4055.307617,860.706665 
	C4052.977783,867.142578 4050.337158,873.466064 4047.151123,881.595459 
	C4036.480713,851.185913 4026.504395,822.755188 4016.767578,795.006592 
	C4003.943848,795.006592 3992.511230,795.006592 3980.002930,795.006592 
	C3995.970947,839.301392 4011.585938,882.616577 4027.204346,925.941650 
	C4040.179199,925.941650 4052.416504,925.941650 4064.989014,925.941650 
	C4074.747559,899.986938 4084.418945,874.264526 4094.852295,846.514954 
	C4104.976074,874.393677 4114.338867,900.176880 4123.711914,925.987427 
	C4136.663574,925.987427 4148.918457,925.987427 4161.335938,925.987427 
	C4162.316895,923.623535 4163.197266,921.502136 4164.486816,917.797424 
M3797.741699,910.774902 
	C3811.974609,895.565125 3817.307129,877.467834 3816.464111,856.830444 
	C3815.444336,831.865662 3805.447510,812.068848 3783.152588,800.576721 
	C3760.459717,788.879578 3737.290283,788.321472 3715.361328,803.772278 
	C3714.130859,804.639099 3712.588379,805.062988 3710.948486,805.802612 
	C3710.399170,801.625793 3709.946289,798.183533 3709.513672,794.895996 
	C3696.926025,794.895996 3685.086914,794.895996 3672.894043,794.895996 
	C3672.894043,854.577942 3672.894043,913.655396 3672.894043,973.065674 
	C3685.938721,973.065674 3698.380127,973.065674 3712.030762,973.065674 
	C3712.030762,953.484802 3712.030762,934.522705 3712.030762,915.857117 
	C3719.374023,919.520081 3725.514404,923.905823 3732.341553,925.748596 
	C3755.994141,932.132874 3777.754639,927.998718 3797.741699,910.774902 
M3295.704590,818.724976 
	C3295.704590,808.545349 3295.704590,798.365723 3295.704590,787.408203 
	C3326.327393,787.408203 3355.504150,787.408203 3385.006348,787.408203 
	C3385.006348,776.470093 3385.006348,766.375366 3385.006348,756.399658 
	C3341.873047,756.399658 3299.435059,756.399658 3256.331543,756.399658 
	C3256.331543,813.241638 3256.331543,869.344666 3256.331543,925.388794 
	C3270.292236,927.276611 3380.948730,926.714722 3387.747070,924.823059 
	C3387.747070,914.921570 3387.747070,905.070068 3387.747070,894.442810 
	C3356.794189,894.008423 3326.382568,894.630615 3296.445801,894.098450 
	C3296.445801,880.479675 3296.445801,868.323547 3296.445801,855.374146 
	C3323.031006,855.374146 3348.878174,855.374146 3374.993408,855.374146 
	C3374.993408,844.433838 3374.993408,834.334900 3374.993408,823.656616 
	C3368.658936,823.656616 3363.016113,823.607544 3357.374268,823.665649 
	C3339.068604,823.854187 3320.763916,824.131226 3302.458008,824.240356 
	C3299.772705,824.256409 3296.016602,825.521545 3295.704590,818.724976 
M4579.107422,910.142212 
	C4580.986816,905.523865 4583.018555,900.960144 4584.702148,896.271484 
	C4586.261719,891.930603 4588.844238,890.067505 4593.670898,890.232483 
	C4603.656738,890.573975 4613.662109,890.334167 4623.659668,890.333984 
	C4637.606934,890.333679 4651.554688,890.333862 4665.758789,890.333862 
	C4670.996582,902.617126 4676.030273,914.422241 4680.934570,925.922302 
	C4695.077637,925.922302 4708.325684,925.922302 4723.204590,925.922302 
	C4697.627930,868.682739 4672.473633,812.389465 4647.305664,756.064331 
	C4633.493164,756.064331 4620.238770,756.064331 4606.613281,756.064331 
	C4581.578613,812.601013 4556.053711,868.691223 4531.055176,926.028442 
	C4545.621094,926.028442 4558.561035,926.028442 4572.181641,926.028442 
	C4574.253418,921.217346 4576.337891,916.375610 4579.107422,910.142212 
M1423.922729,893.504089 
	C1413.742798,895.614319 1403.588745,895.632019 1393.525391,892.882568 
	C1355.406982,882.467957 1345.390991,835.375793 1366.565063,806.839417 
	C1382.072266,785.940186 1417.198853,778.505066 1442.575806,797.346741 
	C1446.217041,800.050171 1449.700928,802.965332 1453.784912,806.200134 
	C1462.294189,798.220825 1470.411987,790.608704 1478.697266,782.839417 
	C1469.866699,771.990601 1459.908569,764.652283 1448.002686,759.668274 
	C1432.294556,753.092773 1415.874146,751.047302 1399.177246,752.422791 
	C1369.417236,754.874390 1344.856934,767.335938 1328.320312,792.914429 
	C1317.150635,810.191223 1313.702026,829.304932 1315.446045,849.908020 
	C1317.216064,870.817383 1325.397461,888.306580 1339.710449,903.143005 
	C1368.479858,932.964661 1420.563110,937.403625 1455.375122,918.280334 
	C1464.222534,913.420288 1473.126587,907.969482 1478.441406,898.120911 
	C1469.807861,890.205078 1461.554321,882.637695 1453.024414,874.817017 
	C1444.679443,882.813599 1436.540283,890.213562 1423.922729,893.504089 
M2986.651611,916.507874 
	C3014.857422,936.013489 3072.080322,931.469299 3085.939453,905.498169 
	C3082.857666,902.367859 3079.580566,899.114746 3076.390625,895.778687 
	C3073.023193,892.256897 3069.738281,888.656067 3066.173828,884.828308 
	C3053.980957,893.881897 3041.656982,899.574585 3026.781006,896.722168 
	C3008.105225,893.141113 2999.787109,886.434509 2997.119385,871.475098 
	C3029.763184,871.475098 3062.251953,871.475098 3095.697754,871.475098 
	C3095.697754,864.982239 3096.114014,859.364136 3095.624268,853.826111 
	C3093.736084,832.472290 3085.131104,814.517456 3066.362305,803.231689 
	C3043.776123,789.650574 3019.672852,788.609497 2995.667236,799.029480 
	C2946.183838,820.508728 2944.224854,890.044495 2986.651611,916.507874 
M4342.862793,824.416016 
	C4331.422363,805.266296 4314.145508,795.627563 4292.337402,793.180847 
	C4270.081543,790.683838 4250.206543,795.844421 4233.411133,811.115356 
	C4221.023438,822.378967 4214.673828,836.531250 4213.077637,853.119507 
	C4210.743164,877.376648 4217.794922,898.062744 4237.508301,912.793823 
	C4262.790527,931.686707 4291.070312,932.449585 4320.018555,922.980835 
	C4328.802734,920.107605 4336.626465,914.849121 4342.377441,906.155701 
	C4335.479492,898.927124 4328.752930,891.878052 4322.208008,885.019836 
	C4291.232910,905.397217 4259.714844,899.351685 4252.861816,871.705750 
	C4263.976074,871.705750 4274.865234,871.705811 4285.754395,871.705811 
	C4296.739746,871.705811 4307.725586,871.752258 4318.710449,871.692566 
	C4329.547363,871.633606 4340.407227,871.958557 4351.222656,871.477417 
	C4352.760742,854.609070 4351.035645,839.668335 4342.862793,824.416016 
M2066.743896,928.344666 
	C2085.520264,927.435181 2102.250732,922.069519 2115.352295,906.717712 
	C2108.129150,898.924011 2101.498535,891.769653 2094.579590,884.304199 
	C2086.289551,892.876221 2076.554199,896.348328 2066.190430,897.262085 
	C2052.361328,898.481262 2039.690674,895.194458 2030.524658,883.708801 
	C2027.950562,880.483093 2024.971436,877.079407 2026.766846,871.308472 
	C2058.933594,871.308472 2091.073486,871.308472 2124.268066,871.308472 
	C2124.268066,864.449707 2124.708984,858.501953 2124.184814,852.640503 
	C2122.651855,835.496704 2116.411133,820.442383 2102.901855,809.164001 
	C2082.665771,792.269653 2059.495117,789.049255 2034.605957,795.444580 
	C2004.716431,803.124695 1984.502441,830.688538 1985.490967,861.154114 
	C1986.432129,890.157043 1999.658325,910.204041 2025.850098,922.053467 
	C2038.268677,927.671814 2051.425781,928.803894 2066.743896,928.344666 
M2831.963379,890.606995 
	C2847.026367,857.350098 2836.634277,820.932373 2806.032959,802.719360 
	C2790.490234,793.468811 2773.248535,791.395203 2755.154541,793.490601 
	C2734.420410,795.891724 2717.903809,804.899536 2705.667969,821.651550 
	C2684.318848,850.880981 2691.949463,895.188660 2721.894775,915.374207 
	C2743.515625,929.947998 2767.044922,931.753845 2791.558838,924.507324 
	C2809.300293,919.262817 2822.716797,908.502319 2831.963379,890.606995 
M3842.202148,823.468506 
	C3840.524902,826.720947 3838.690186,829.902771 3837.195068,833.236938 
	C3825.671143,858.940063 3832.182129,897.039429 3859.291260,915.098450 
	C3879.771729,928.741638 3901.941650,931.552246 3925.160156,925.927979 
	C3973.660156,914.179565 3993.096680,857.178406 3962.243652,818.227722 
	C3947.136230,799.155518 3926.154053,792.459656 3903.145020,792.553772 
	C3878.742920,792.653625 3857.732178,801.530640 3842.202148,823.468506 
M1509.840942,911.262085 
	C1528.234131,926.441040 1549.685913,931.048157 1572.609619,927.518799 
	C1599.868408,923.322021 1620.604492,909.521667 1629.066650,881.976929 
	C1638.711304,850.582397 1627.999390,813.400208 1591.515991,798.625671 
	C1570.699097,790.195435 1549.322632,790.324463 1528.411621,798.656128 
	C1518.142090,802.747864 1509.323608,809.209412 1502.073853,817.863159 
	C1480.821045,843.230774 1482.651367,887.711426 1509.840942,911.262085 
M1791.699585,845.600708 
	C1791.070801,840.675171 1790.932983,835.625427 1789.723877,830.846680 
	C1785.639404,814.704468 1776.459473,802.372559 1760.462158,796.681580 
	C1739.540527,789.238831 1719.326294,790.918518 1700.571289,803.687500 
	C1698.817627,804.881592 1696.832642,805.736328 1694.657104,806.909302 
	C1694.369141,802.466980 1694.134277,798.844177 1693.882080,794.954468 
	C1681.391846,794.954468 1669.262207,794.954468 1656.761475,794.954468 
	C1656.761475,838.792114 1656.761475,881.967468 1656.761475,925.742493 
	C1669.677002,925.742493 1682.134888,925.742493 1695.699707,925.742493 
	C1695.699707,922.137878 1695.699707,918.903809 1695.699707,915.669678 
	C1695.699707,898.672424 1695.648560,881.674988 1695.735229,864.678162 
	C1695.757324,860.358948 1695.818970,855.973511 1696.546631,851.735962 
	C1699.674316,833.522949 1716.621216,822.720581 1734.268188,827.259216 
	C1744.457642,829.879883 1750.392334,836.326782 1751.888062,846.546265 
	C1752.893799,853.418640 1753.483887,860.403320 1753.580322,867.347107 
	C1753.816162,884.341125 1753.626831,901.340637 1753.691406,918.337646 
	C1753.701050,920.862488 1754.159790,923.385620 1754.397095,925.773071 
	C1767.021729,925.773071 1778.877808,925.773071 1791.699463,925.773071 
	C1791.699463,899.303345 1791.699463,873.391541 1791.699585,845.600708 
M1913.742188,793.039795 
	C1894.809326,790.612183 1878.008179,795.983582 1862.739624,808.514771 
	C1862.388916,803.074158 1862.136719,799.163086 1861.827026,794.357788 
	C1849.673096,794.407837 1837.919678,793.955078 1826.223633,794.659119 
	C1826.223633,839.066650 1826.223633,882.248535 1826.223633,926.117737 
	C1839.187744,926.398865 1851.584351,926.513062 1864.327271,926.086426 
	C1864.327271,904.065430 1864.156860,883.419189 1864.439941,862.779175 
	C1864.516357,857.215881 1865.323486,851.478333 1866.915894,846.156067 
	C1871.008057,832.480225 1885.222046,824.249023 1899.949097,826.392212 
	C1913.005981,828.292358 1921.108887,838.324219 1921.658325,853.310669 
	C1921.731445,855.307129 1921.669556,857.308594 1921.669556,859.307739 
	C1921.669922,878.965942 1921.643555,898.624146 1921.702881,918.282166 
	C1921.710571,920.809753 1922.162476,923.335938 1922.391846,925.690918 
	C1935.300171,925.690918 1947.455566,925.690918 1959.965332,925.690918 
	C1959.965332,896.472412 1961.086548,867.830505 1959.645630,839.317993 
	C1958.242310,811.550293 1938.451782,795.397766 1913.742188,793.039795 
M2145.004883,832.395264 
	C2143.750732,836.171326 2142.091064,839.865112 2141.305908,843.736328 
	C2134.629150,876.647766 2145.881348,905.321106 2175.706299,920.266052 
	C2198.144043,931.509338 2221.908936,931.917297 2245.261719,922.033386 
	C2257.643066,916.793030 2266.690918,907.824036 2272.168701,894.557373 
	C2262.182861,889.176208 2252.421631,883.915955 2242.895996,878.782654 
	C2225.918213,898.537476 2204.186035,901.948059 2189.276855,887.658020 
	C2175.883789,874.821045 2174.260254,849.237915 2188.587891,834.266418 
	C2195.102783,827.458801 2203.705078,824.285950 2212.930176,824.495422 
	C2225.747070,824.786621 2235.451172,831.348694 2242.206299,842.819214 
	C2247.843750,839.750000 2252.754395,837.059387 2257.681396,834.398987 
	C2262.514648,831.789001 2267.364746,829.209778 2272.034424,826.709839 
	C2266.378906,812.214539 2256.317871,804.508789 2246.507812,799.832581 
	C2231.383545,792.623291 2215.476562,790.832764 2198.953369,793.661133 
	C2175.260986,797.716492 2156.608154,808.808289 2145.004883,832.395264 
M2354.579834,928.332947 
	C2363.767334,927.419800 2372.929688,926.435303 2380.752197,919.470581 
	C2377.377930,910.621887 2374.127441,902.097961 2370.711670,893.141174 
	C2368.603027,893.970886 2367.427734,894.444336 2366.244629,894.897400 
	C2348.925049,901.529419 2339.054443,895.106506 2338.343750,876.741394 
	C2338.318115,876.076721 2338.337891,875.410156 2338.337891,874.744507 
	C2338.337891,861.764099 2338.301270,848.783569 2338.369385,835.803528 
	C2338.382812,833.265991 2338.802979,830.730652 2339.129150,827.171875 
	C2350.258301,827.171875 2360.734375,827.171875 2371.102051,827.171875 
	C2371.102051,816.887268 2371.102051,807.706055 2371.102051,797.397339 
	C2360.073242,797.397339 2349.612549,797.397339 2337.962158,797.397339 
	C2337.962158,786.191589 2337.962158,776.094971 2337.962158,766.273926 
	C2324.877441,766.273926 2313.036377,766.273926 2299.967285,766.273926 
	C2299.967285,776.943176 2299.967285,787.028198 2299.967285,798.028442 
	C2292.592285,798.028442 2286.433838,798.028442 2279.957764,798.028442 
	C2279.680664,808.431519 2279.217529,817.860229 2280.207275,828.166992 
	C2287.496094,828.166992 2293.647217,828.166992 2300.306396,828.166992 
	C2300.306396,832.425842 2300.306396,835.714966 2300.306396,839.004089 
	C2300.306396,854.647156 2300.203857,870.291016 2300.331543,885.933044 
	C2300.502930,906.896729 2312.379883,921.944275 2332.978516,926.582275 
	C2339.367920,928.020935 2346.131104,927.799622 2354.579834,928.332947 
M4819.210938,926.341797 
	C4829.087891,926.341797 4838.964844,926.341797 4848.639648,926.341797 
	C4850.617188,911.586975 4850.066406,751.985962 4848.020996,744.326294 
	C4835.718262,744.358948 4823.260742,744.104614 4810.297363,744.478027 
	C4810.297363,749.197510 4810.245605,752.502869 4810.305664,755.806213 
	C4810.743652,780.071167 4811.413086,804.334167 4811.604004,828.600952 
	C4811.832031,857.579590 4811.656250,886.561523 4811.659180,915.541992 
	C4811.659180,917.873596 4811.712402,920.205322 4811.700195,922.536804 
	C4811.678223,926.563843 4814.560059,926.301514 4819.210938,926.341797 
M4776.322266,757.189575 
	C4776.207031,753.037842 4776.091309,748.886108 4775.985352,745.061829 
	C4762.461914,745.061829 4750.329590,745.061829 4738.295898,745.061829 
	C4736.274902,767.926392 4737.202148,918.985535 4739.216797,925.593018 
	C4751.503418,925.593018 4763.662109,925.593018 4776.322754,925.593018 
	C4776.322754,869.627441 4776.322754,814.389343 4776.322266,757.189575 
M4376.299316,912.803833 
	C4376.299316,917.031128 4376.299316,921.258423 4376.299316,925.717407 
	C4389.928223,925.717407 4402.375488,925.717407 4415.700684,925.717407 
	C4415.700684,922.204956 4415.700684,919.270935 4415.700684,916.336853 
	C4415.700684,898.031189 4415.551758,879.723938 4415.741699,861.420227 
	C4415.954590,840.830017 4428.222168,828.664246 4448.700684,828.352905 
	C4451.599609,828.308838 4454.499512,828.346802 4457.737793,828.346802 
	C4457.737793,815.897461 4457.737793,804.436646 4457.737793,792.579956 
	C4441.088867,792.432251 4426.939941,797.644897 4414.149902,808.625793 
	C4413.771973,803.195007 4413.500488,799.286560 4413.155762,794.325195 
	C4400.749512,794.464478 4388.716797,793.879395 4376.299316,794.696045 
	C4376.299316,834.317383 4376.299316,872.580322 4376.299316,912.803833 
M2863.669189,863.000000 
	C2863.669189,883.856506 2863.669189,904.713074 2863.669189,925.824219 
	C2877.042969,925.824219 2889.193359,925.824219 2902.329834,925.824219 
	C2902.329834,923.092529 2902.329834,920.856567 2902.329834,918.620605 
	C2902.330078,900.305908 2902.350098,881.991150 2902.325684,863.676453 
	C2902.296631,841.688416 2914.996338,827.719482 2937.362305,828.294556 
	C2939.893066,828.359619 2942.437256,827.888428 2945.693604,827.602905 
	C2945.531250,815.574890 2946.002441,804.164246 2945.341553,791.395325 
	C2936.134277,793.315491 2928.096680,794.042725 2920.814941,796.780090 
	C2913.686768,799.459656 2907.328125,804.187073 2900.520996,808.078857 
	C2900.322510,803.559082 2900.136719,799.330078 2899.938965,794.830078 
	C2887.700928,794.830078 2876.203613,794.830078 2863.669189,794.830078 
	C2863.669189,817.225708 2863.669189,839.112854 2863.669189,863.000000 
M3113.190918,914.667603 
	C3116.447754,918.757568 3119.704590,922.847534 3123.363770,927.442871 
	C3120.302002,938.935669 3117.076660,951.040894 3113.671387,963.822510 
	C3122.304932,963.822510 3130.127441,963.822510 3138.531738,963.822510 
	C3143.888428,950.402100 3149.393311,937.255005 3154.342529,923.901917 
	C3156.389160,918.379700 3157.810791,912.486145 3158.532959,906.639954 
	C3160.335693,892.051208 3151.012207,881.005737 3136.885498,880.302734 
	C3121.526611,879.538452 3111.570801,888.967712 3111.694824,904.291443 
	C3111.718750,907.261536 3112.198486,910.227905 3113.190918,914.667603 
z"/>
<path fill="#017BFF" opacity="1.000000" stroke="none" 
	d="
M282.007874,3.548452 
	C288.361359,4.904997 294.714874,6.261542 302.650665,7.955923 
	C297.509644,11.573092 293.884003,14.381864 290.015198,16.801950 
	C272.253174,27.912735 262.982391,44.634285 258.203766,64.400345 
	C250.984863,94.260071 254.256439,123.799591 261.314392,153.104492 
	C273.082275,201.965118 293.161652,247.329407 318.130127,290.890045 
	C334.314728,319.126129 348.762878,348.407684 362.957367,377.720398 
	C377.585297,407.928131 391.319824,438.585327 404.762360,469.344330 
	C413.942078,490.349365 421.911133,511.877777 426.389404,534.504272 
	C429.326935,549.346313 429.321289,564.331787 427.265381,579.177856 
	C421.334167,622.007629 403.734375,660.628296 383.382294,698.199219 
	C355.616821,749.455566 323.568878,798.065125 291.678833,846.774048 
	C289.858215,849.554871 288.505310,852.736572 286.293427,855.142029 
	C283.695282,857.967224 280.772736,861.072632 277.344238,862.469727 
	C219.078323,886.213257 159.754639,906.623901 97.447853,916.959167 
	C76.780106,920.387451 55.918201,922.515747 35.036037,918.085693 
	C32.441921,917.535400 29.854511,916.836243 27.365427,915.927979 
	C15.387576,911.557739 8.884789,903.796814 10.780088,888.062561 
	C14.802670,854.668152 28.909712,825.080627 45.125031,796.303406 
	C69.823296,752.471680 98.857315,711.426392 126.676559,669.592712 
	C142.142868,646.334900 156.903687,622.617981 168.334290,596.969788 
	C176.991272,577.545105 181.887848,557.341309 181.530746,536.160889 
	C181.242844,519.084412 177.598358,502.493378 169.390656,487.295013 
	C133.148560,420.184570 101.738594,350.899170 75.449463,279.299622 
	C66.035164,253.659363 58.006134,227.586670 56.102345,200.193359 
	C54.225494,173.187729 55.611305,146.376572 64.262070,120.322716 
	C70.987610,100.067139 81.931061,82.284363 96.087021,66.620628 
	C124.127968,35.592999 158.596252,15.388702 199.823807,7.200973 
	C205.351334,6.103217 210.916901,5.197080 218.016113,3.925893 
	C223.044922,3.099717 226.522461,2.549860 230.000000,2.000001 
	C242.708786,2.000000 255.417587,2.000000 269.552246,2.601608 
	C274.654724,3.318295 278.331299,3.433374 282.007874,3.548452 
z"/>
<path fill="#017BFF" opacity="1.000000" stroke="none" 
	d="
M1.999998,936.916138 
	C5.446923,936.725098 9.139524,936.887390 12.300586,938.267334 
	C31.656296,946.716614 51.542442,948.260193 72.597458,946.663452 
	C126.855194,942.548645 178.394943,927.486023 229.127426,909.426758 
	C295.815094,885.687866 360.993286,858.006531 425.368439,828.668396 
	C475.574615,805.787476 524.752441,780.625305 574.144836,755.990906 
	C619.747070,733.246948 662.867615,706.185547 705.312256,678.106628 
	C725.270020,664.903748 744.382874,650.423767 763.882568,636.528198 
	C766.022827,635.002991 768.189209,633.514465 770.769836,631.710999 
	C781.375061,646.384949 788.905823,662.230713 795.661438,678.417236 
	C810.771973,714.622009 816.958923,752.344910 813.700745,791.501221 
	C810.746765,827.002747 797.525269,857.759827 774.720825,885.593567 
	C760.782349,902.606201 742.499634,911.859253 724.773254,922.454956 
	C693.390503,941.213440 661.858215,959.842041 629.470398,976.768433 
	C589.124390,997.853760 548.199036,1017.917969 506.877930,1037.026001 
	C463.133667,1057.254517 418.107391,1074.505127 372.133148,1089.097778 
	C332.512421,1101.673828 292.355377,1112.020142 250.458801,1117.334595 
	C227.958206,1118.000000 205.916428,1118.000000 182.485016,1117.334106 
	C146.987656,1112.833130 114.625122,1103.403687 85.049400,1085.700195 
	C51.117374,1065.389038 26.016932,1037.345093 12.747887,999.694458 
	C9.137614,989.450439 7.174445,978.625916 4.449486,967.356384 
	C3.629090,963.763306 2.814542,960.881653 1.999997,958.000000 
	C2.000000,951.277405 2.000000,944.554871 1.999998,936.916138 
z"/>
<path fill="#017BFF" opacity="1.000000" stroke="none" 
	d="
M6000.000000,261.062683 
	C5959.020508,261.904602 5918.041016,261.803284 5877.061523,261.741882 
	C5875.805664,261.739990 5874.548828,262.152954 5872.554688,262.501373 
	C5872.554688,388.579987 5872.554688,514.422791 5872.554688,640.974365 
	C5826.954102,640.974365 5782.146973,640.974365 5735.847168,640.974365 
	C5735.481934,616.035217 5735.732910,590.887329 5735.687500,565.747620 
	C5735.642090,540.423035 5735.677734,515.098267 5735.677734,489.773590 
	C5735.677734,464.782135 5735.677734,439.790680 5735.677734,414.799225 
	C5735.677734,389.474548 5735.677734,364.149902 5735.677734,338.825226 
	C5735.677734,313.563873 5735.677734,288.302521 5735.677734,261.927612 
	C5692.471191,261.927612 5650.027344,261.927612 5606.960938,261.927612 
	C5606.960938,224.992096 5606.960938,189.169617 5606.960938,152.377777 
	C5609.609863,152.153748 5612.441895,151.705170 5615.273926,151.704788 
	C5742.896973,151.687592 5870.519531,151.709732 5999.071289,151.863617 
	C6000.000000,188.041794 6000.000000,224.083572 6000.000000,261.062683 
z"/>
<path fill="#FCFEFF" opacity="1.000000" stroke="none" 
	d="
M4.455335,968.067810 
	C7.174445,978.625916 9.137614,989.450439 12.747887,999.694458 
	C26.016932,1037.345093 51.117374,1065.389038 85.049400,1085.700195 
	C114.625122,1103.403687 146.987656,1112.833130 181.547699,1117.334106 
	C122.159500,1118.000000 62.319004,1118.000000 2.000000,1118.000000 
	C2.000000,1068.625854 2.000000,1019.250244 2.409927,968.941223 
	C3.365697,968.009216 3.910858,968.029236 4.455335,968.067810 
z"/>
<path fill="#FBFDFF" opacity="1.000000" stroke="none" 
	d="
M4.449487,967.356384 
	C3.910858,968.029236 3.365697,968.009216 2.409927,968.003906 
	C2.000000,965.222229 2.000000,962.444397 1.999997,958.833313 
	C2.814542,960.881653 3.629090,963.763306 4.449487,967.356384 
z"/>
<path fill="#FBFDFF" opacity="1.000000" stroke="none" 
	d="
M282.008789,3.161325 
	C278.331299,3.433374 274.654724,3.318295 270.489075,2.601608 
	C273.428711,2.000000 276.857422,2.000000 281.143066,2.000000 
	C282.000000,2.000000 282.009735,2.774197 282.008789,3.161325 
z"/>
<path fill="#FBFDFF" opacity="1.000000" stroke="none" 
	d="
M229.143066,2.000001 
	C226.522461,2.549860 223.044922,3.099717 218.779251,3.621617 
	C217.991119,3.593660 217.991013,2.796805 217.995514,2.398402 
	C221.428711,2.000000 224.857437,2.000000 229.143066,2.000001 
z"/>
<path fill="#017BFF" opacity="1.000000" stroke="none" 
	d="
M332.740845,263.101440 
	C315.911133,229.742798 301.535919,196.211868 291.123962,160.996567 
	C283.518890,135.274826 279.652771,109.189362 281.961761,82.476570 
	C283.814758,61.038883 292.363190,43.264633 313.397949,34.109367 
	C325.194305,28.975054 337.680603,27.705526 350.467102,28.561979 
	C373.774567,30.123142 394.831635,38.520836 415.714874,48.411926 
	C481.981598,79.798386 545.379333,116.216835 606.988831,155.842850 
	C673.646790,198.715942 737.364380,245.585526 798.892639,295.564087 
	C854.264221,340.541656 906.585205,388.802063 955.532654,440.547363 
	C986.654175,473.447754 1014.563171,509.209076 1031.312500,552.162415 
	C1037.369385,567.695251 1041.164185,583.649597 1042.549683,600.463501 
	C1045.290894,633.728271 1035.373413,663.360352 1018.913330,691.354309 
	C1006.546509,712.386780 991.282410,731.430176 973.916138,748.376343 
	C946.514648,775.114929 916.448792,798.794128 884.745422,820.306152 
	C866.846741,832.451233 848.773682,844.339539 830.751526,856.301941 
	C829.156006,857.361023 827.355835,858.111877 824.154785,859.790161 
	C825.774536,855.078491 826.813049,851.732910 828.064209,848.468872 
	C840.433350,816.201233 843.833069,782.934998 840.484863,748.609619 
	C835.832886,700.918518 819.984070,657.287292 793.627747,617.580811 
	C780.022522,597.084106 763.300964,579.023499 746.063660,561.375183 
	C719.738647,534.422485 692.006348,509.028259 662.227051,486.108704 
	C626.663818,458.737549 590.148010,432.583771 553.661987,406.436859 
	C506.840912,372.883484 457.656219,342.934235 408.499298,312.986725 
	C388.623260,300.877777 368.309753,289.483734 348.125061,277.886566 
	C341.948425,274.337769 336.460388,270.211639 332.740845,263.101440 
z"/>
<path fill="#017CFF" opacity="1.000000" stroke="none" 
	d="
M2406.009766,151.670898 
	C2442.233643,151.670822 2477.459961,151.670822 2513.178223,151.670822 
	C2513.178223,315.257965 2513.178223,477.752106 2513.178223,640.924438 
	C2510.498535,641.188416 2507.959717,641.653625 2505.420410,641.656555 
	C2465.427734,641.702454 2425.433594,641.540161 2385.443359,641.843750 
	C2379.179199,641.891235 2375.929688,639.372864 2372.713623,634.506836 
	C2316.358887,549.237610 2259.855957,464.066254 2203.373779,378.881348 
	C2202.140625,377.021515 2200.770996,375.252350 2197.814941,373.746918 
	C2197.814941,462.706055 2197.814941,551.665161 2197.814941,641.151917 
	C2151.730225,641.151917 2106.857666,641.151917 2061.968994,641.151917 
	C2059.893799,634.289795 2059.063477,170.382523 2061.270020,151.671036 
	C2064.582764,151.671036 2068.123535,151.671036 2071.664307,151.671036 
	C2109.990723,151.671036 2148.321045,151.958923 2186.640625,151.447189 
	C2195.102783,151.334198 2199.703369,154.203369 2204.177734,161.116989 
	C2245.946533,225.658386 2288.083008,289.961823 2330.101562,354.341614 
	C2344.650391,376.633392 2359.162842,398.949127 2373.712158,421.240570 
	C2374.389648,422.278687 2375.267578,423.186035 2377.411133,425.832489 
	C2377.411133,333.565521 2377.411133,243.243500 2377.411133,151.670975 
	C2387.255859,151.670975 2396.134277,151.670975 2406.009766,151.670898 
z"/>
<path fill="#017BFF" opacity="1.000000" stroke="none" 
	d="
M4723.795898,152.404892 
	C4726.426758,152.161209 4729.057617,151.708221 4731.688477,151.705246 
	C4771.659668,151.660034 4811.631348,151.780823 4851.601562,151.557220 
	C4857.539062,151.524002 4861.186035,153.242386 4864.525879,158.392853 
	C4899.998535,213.095001 4935.736328,267.625183 4971.416992,322.192169 
	C4993.445312,355.879791 5015.499023,389.550476 5037.565918,423.213013 
	C5037.872559,423.680420 5038.492188,423.942932 5039.898438,425.007599 
	C5039.898438,334.000397 5039.898438,243.693527 5039.898438,154.556274 
	C5041.037598,153.129852 5041.216797,152.837891 5041.461426,152.618454 
	C5041.693359,152.410690 5041.992676,152.135132 5042.263184,152.134232 
	C5085.548828,151.989243 5128.834961,151.866272 5173.051758,152.848694 
	C5173.969238,316.388763 5173.955078,478.822540 5173.941406,641.256348 
	C5159.624512,641.399780 5145.307617,641.636658 5130.990723,641.667236 
	C5101.005859,641.731262 5071.020996,641.686646 5040.219238,641.686646 
	C4980.774902,552.106201 4921.204102,462.335144 4860.499023,370.855194 
	C4858.957031,385.134674 4859.881836,397.563477 4859.717285,409.938049 
	C4859.543945,422.931427 4859.679199,435.928955 4859.679199,448.924652 
	C4859.679199,461.587128 4859.679199,474.249634 4859.679199,486.912109 
	C4859.679199,499.907806 4859.679199,512.903503 4859.679199,525.899231 
	C4859.679199,538.561707 4859.679199,551.224182 4859.679199,563.886658 
	C4859.679199,576.882385 4859.679199,589.878052 4859.679199,602.873779 
	C4859.679199,615.445190 4859.678711,628.016602 4859.678711,641.444214 
	C4814.100098,641.444214 4769.556152,641.444214 4724.465820,639.941895 
	C4723.942871,477.756805 4723.966309,317.074005 4723.980469,156.391190 
	C4723.980469,155.062424 4723.860352,153.733658 4723.795898,152.404892 
z"/>
<path fill="#017BFF" opacity="1.000000" stroke="none" 
	d="
M1566.003052,361.672791 
	C1639.614258,361.672760 1712.225952,361.672760 1785.407471,361.672760 
	C1785.749512,364.296600 1786.281982,366.489502 1786.284790,368.683075 
	C1786.335693,408.670380 1786.201050,448.658447 1786.409790,488.644745 
	C1786.461670,498.575623 1781.496826,506.650269 1777.239746,514.658447 
	C1758.189087,550.495117 1732.011475,580.140320 1698.307739,603.078552 
	C1665.742798,625.241760 1629.869751,637.918762 1590.836914,642.407593 
	C1570.257690,644.774170 1549.666992,645.112793 1529.093628,643.601746 
	C1475.995605,639.701721 1427.682373,623.090515 1386.953613,587.760315 
	C1347.393433,553.443970 1323.053101,510.102264 1311.862671,459.104645 
	C1305.390015,429.607483 1304.149536,399.761017 1306.438354,369.833923 
	C1310.559937,315.941956 1328.750977,267.293457 1364.537842,226.357895 
	C1394.141602,192.494888 1431.122803,169.728867 1474.694946,157.665115 
	C1509.429932,148.048050 1544.800415,145.921982 1580.418335,148.480057 
	C1623.415649,151.568100 1664.252930,162.298233 1700.265747,187.317871 
	C1742.011597,216.320663 1768.229858,255.848495 1779.728394,305.248535 
	C1780.246704,307.475769 1780.249268,309.823059 1780.571533,312.863770 
	C1778.086914,313.165375 1775.947632,313.649506 1773.807739,313.651672 
	C1729.821655,313.696503 1685.835449,313.673279 1641.849365,313.708832 
	C1637.779663,313.712128 1634.343994,313.533203 1631.459717,309.558075 
	C1614.937744,286.786743 1592.044067,275.759796 1564.289917,274.003143 
	C1544.797974,272.769440 1525.713623,274.516754 1507.659546,282.436279 
	C1481.225098,294.032013 1463.511108,314.038696 1453.895508,340.958069 
	C1439.432129,381.449158 1440.515015,422.126770 1456.891113,461.584381 
	C1468.986450,490.728394 1491.257446,510.069885 1522.197510,518.431885 
	C1552.759644,526.691711 1583.256836,527.854248 1613.135010,515.737671 
	C1638.392456,505.494995 1655.357788,486.696533 1667.679321,460.575958 
	C1621.888916,459.920502 1577.568848,460.714600 1532.822876,460.122345 
	C1532.822876,427.054077 1532.822876,394.910614 1532.822876,361.672852 
	C1543.872559,361.672852 1554.437988,361.672852 1566.003052,361.672791 
z"/>
<path fill="#017CFF" opacity="1.000000" stroke="none" 
	d="
M3885.249512,417.309967 
	C3875.128174,424.313873 3865.907959,431.533875 3855.787842,437.124756 
	C3845.968018,442.549927 3835.224121,446.302551 3823.852051,451.238403 
	C3859.981934,514.025452 3896.162842,576.901001 3933.122803,641.130554 
	C3929.373779,641.392090 3927.247803,641.668640 3925.121582,641.669861 
	C3879.467529,641.694885 3833.812012,641.527893 3788.160400,641.862549 
	C3781.296875,641.912781 3778.377686,639.091980 3775.393555,633.505798 
	C3744.855957,576.339966 3714.028320,519.329163 3683.172363,462.072144 
	C3679.008301,462.072144 3675.059326,462.072144 3669.971924,462.072144 
	C3669.971924,521.501587 3669.971924,580.943726 3669.971924,641.032593 
	C3623.734863,641.032593 3578.630615,641.032593 3532.921387,641.032593 
	C3532.921387,478.272278 3532.921387,315.806976 3532.921387,152.532959 
	C3535.268555,152.258041 3537.770264,151.710602 3540.272461,151.709030 
	C3612.585938,151.663315 3684.904541,151.156830 3757.210693,151.885010 
	C3794.593994,152.261490 3830.198975,160.687073 3862.493164,180.991745 
	C3896.223389,202.199249 3916.693115,232.613724 3925.493408,270.796295 
	C3933.689941,306.361694 3931.254395,341.399841 3915.901855,375.026489 
	C3908.627197,390.960327 3898.480469,404.814270 3885.249512,417.309967 
M3788.715332,300.996124 
	C3786.688477,290.643860 3780.798828,282.923706 3772.417969,276.830231 
	C3761.739502,269.066162 3749.398438,266.667389 3736.675293,266.418945 
	C3717.040527,266.035614 3697.392822,266.293152 3677.750488,266.350494 
	C3675.219727,266.357880 3672.690186,266.792877 3670.306152,267.016083 
	C3668.514893,286.876862 3669.272461,359.968811 3671.435303,367.682007 
	C3692.520996,367.682007 3713.786377,367.854889 3735.046143,367.583038 
	C3741.971436,367.494507 3749.070312,367.015900 3755.761963,365.376892 
	C3772.851318,361.191040 3785.514160,351.417175 3788.415039,333.186157 
	C3790.006592,323.182281 3789.149658,312.788818 3788.715332,300.996124 
z"/>
<path fill="#017CFF" opacity="1.000000" stroke="none" 
	d="
M3283.981445,151.671432 
	C3293.618164,151.671371 3302.259766,151.671371 3310.597168,151.671371 
	C3318.318604,166.632141 3487.446045,633.721619 3487.849854,641.288452 
	C3440.292236,641.288452 3392.755371,641.288452 3344.592041,641.288452 
	C3335.958740,614.984009 3327.381348,588.849426 3318.647217,562.237183 
	C3261.393555,562.237183 3204.191895,562.237183 3146.205322,562.237183 
	C3137.401855,588.476501 3128.547363,614.867188 3119.659180,641.358765 
	C3072.106689,641.358765 3025.174072,641.358765 2977.836914,641.358765 
	C2977.920898,639.466736 2977.594482,637.712891 2978.119873,636.268982 
	C3036.826660,474.879272 3095.597656,313.512817 3154.537109,151.671494 
	C3197.754395,151.671494 3240.370361,151.671494 3283.981445,151.671432 
M3184.214600,445.617981 
	C3183.380859,448.760376 3182.546875,451.902771 3181.700684,455.091766 
	C3192.449219,457.089752 3276.115234,456.709869 3283.539062,454.666321 
	C3266.733643,404.520142 3249.935059,354.394104 3233.136230,304.268066 
	C3232.442383,304.289520 3231.748535,304.310974 3231.054443,304.332428 
	C3215.630615,350.914917 3200.206787,397.497437 3184.214600,445.617981 
z"/>
<path fill="#017CFF" opacity="1.000000" stroke="none" 
	d="
M4410.355469,473.697754 
	C4430.640625,529.683777 4450.730957,584.911011 4471.145996,641.030273 
	C4422.445312,641.030273 4374.709961,641.030273 4325.947754,641.030273 
	C4317.480469,615.100098 4308.845215,588.655640 4300.161621,562.062500 
	C4242.650391,562.062500 4185.744629,562.062500 4128.001465,562.062500 
	C4119.056152,588.262939 4110.064453,614.598633 4100.964355,641.253052 
	C4053.591797,641.253052 4006.398682,641.253052 3957.830078,641.253052 
	C4017.372314,477.618805 4076.614258,314.810333 4135.862793,151.983093 
	C4188.498047,151.983093 4240.417480,151.983093 4292.916504,151.983093 
	C4299.198242,168.795609 4305.576172,185.485382 4311.682617,202.273666 
	C4336.777344,271.266144 4361.773438,340.294464 4386.841309,409.296600 
	C4394.556152,430.531891 4402.384277,451.726013 4410.355469,473.697754 
M4175.766113,416.577484 
	C4171.452637,429.411560 4167.139648,442.245636 4162.623535,455.682343 
	C4197.354980,455.682343 4230.730469,455.682343 4265.517090,455.682343 
	C4248.174316,404.180878 4231.168945,353.681824 4214.163574,303.182770 
	C4208.006348,317.615936 4203.509277,331.831299 4198.877930,346.002686 
	C4191.352051,369.030579 4183.737793,392.029633 4175.766113,416.577484 
z"/>
<path fill="#017BFF" opacity="1.000000" stroke="none" 
	d="
M5253.677734,586.000000 
	C5253.677246,441.058899 5253.677246,297.117767 5253.677246,153.309372 
	C5261.275391,151.297302 5553.020020,150.816864 5565.817383,152.740753 
	C5565.817383,188.530563 5565.817383,224.400269 5565.817383,261.453674 
	C5507.650391,261.453674 5449.539062,261.453674 5390.881348,261.453674 
	C5390.881348,288.111267 5390.881348,313.590942 5390.881348,339.972412 
	C5442.354980,339.972412 5493.517578,339.972412 5544.408691,339.972412 
	C5546.726562,347.846649 5547.421875,426.783112 5545.477051,443.920288 
	C5494.405273,443.920288 5443.223633,443.920288 5392.314453,443.920288 
	C5389.881836,451.608398 5389.090820,510.012909 5391.012695,531.437073 
	C5405.333496,531.964966 5419.859863,531.590332 5434.366699,531.659058 
	C5449.029785,531.728577 5463.694336,531.674438 5478.357910,531.674438 
	C5492.688477,531.674438 5507.019043,531.674438 5521.349609,531.674438 
	C5535.944336,531.674438 5550.539062,531.674438 5565.723145,531.674438 
	C5565.723145,568.560303 5565.723145,604.645020 5565.723145,641.181946 
	C5461.702148,641.181946 5358.233887,641.181946 5253.677734,641.181946 
	C5253.677734,622.800049 5253.677734,604.900024 5253.677734,586.000000 
z"/>
<path fill="#027CFF" opacity="1.000000" stroke="none" 
	d="
M2829.682861,578.000000 
	C2829.682861,599.311951 2829.682861,619.623901 2829.682861,639.792725 
	C2822.219482,642.216248 2719.208984,643.177673 2692.711182,641.096069 
	C2691.835938,609.753296 2692.447754,578.261536 2692.336182,546.785339 
	C2692.224121,515.133667 2692.311768,483.481293 2692.311768,451.829254 
	C2692.311768,420.510376 2692.311768,389.191498 2692.311768,357.872620 
	C2692.311768,326.267548 2692.311523,294.662476 2692.311523,262.094421 
	C2649.573242,262.094421 2607.440918,262.094421 2565.601074,262.094421 
	C2563.269531,254.161118 2562.552246,169.642990 2564.469238,152.306808 
	C2695.784912,152.306808 2827.172119,152.306808 2959.121582,152.306808 
	C2959.121582,188.455734 2959.121582,224.297760 2959.121582,261.608215 
	C2916.349365,261.811554 2873.592285,261.593994 2829.682861,261.736450 
	C2829.682861,367.341553 2829.682861,472.170776 2829.682861,578.000000 
z"/>
<path fill="#007BFF" opacity="1.000000" stroke="none" 
	d="
M1860.133301,151.676422 
	C1901.721558,151.676376 1942.327759,151.676376 1983.627319,151.676376 
	C1983.627319,315.006714 1983.627319,477.730774 1983.627319,641.069641 
	C1938.711304,641.069641 1893.906494,641.069641 1848.389404,641.069641 
	C1848.389404,478.241760 1848.389404,315.539246 1848.389404,151.676483 
	C1852.027710,151.676483 1855.589600,151.676483 1860.133301,151.676422 
z"/>
<path fill="#027CFF" opacity="1.000000" stroke="none" 
	d="
M2663.660156,926.148438 
	C2651.710693,926.280212 2640.729736,926.280212 2628.681152,926.280212 
	C2628.681152,893.680115 2628.681152,861.570923 2628.681152,829.461731 
	C2627.938965,829.229736 2627.196533,828.997803 2626.454346,828.765808 
	C2610.720215,855.069641 2594.986084,881.373474 2579.384521,907.455688 
	C2578.422607,907.763306 2577.798828,908.116211 2577.160889,908.144287 
	C2560.579590,908.874146 2560.459717,908.941895 2552.016602,895.205811 
	C2539.991699,875.642090 2528.177490,855.949158 2516.231445,836.336731 
	C2514.972412,834.269531 2513.433838,832.372437 2510.432617,830.884277 
	C2510.432617,862.312927 2510.432617,893.741638 2510.432617,925.742554 
	C2498.018799,925.742554 2486.526367,925.742554 2474.347900,925.742554 
	C2474.347900,869.530701 2474.347900,813.371094 2474.347900,756.439209 
	C2484.903564,756.439209 2495.714355,756.439209 2507.320801,756.439209 
	C2527.794189,790.256226 2548.572754,824.577271 2570.162354,860.238159 
	C2578.472412,846.405579 2585.971191,834.016846 2593.377930,821.573547 
	C2605.291748,801.559448 2617.258545,781.574768 2628.925293,761.417053 
	C2631.170410,757.538025 2633.394531,755.379700 2638.163574,755.572510 
	C2646.797363,755.921631 2655.455322,755.671387 2664.497314,755.671387 
	C2664.953125,757.613647 2665.614990,759.132874 2665.623047,760.655579 
	C2665.895996,813.640991 2666.127197,866.626831 2666.254150,919.612854 
	C2666.259277,921.746155 2665.194824,923.882019 2663.660156,926.148438 
z"/>
<path fill="#057EFF" opacity="1.000000" stroke="none" 
	d="
M3639.700684,901.965698 
	C3639.700684,910.241211 3639.700684,917.524170 3639.700684,926.010376 
	C3626.638184,926.681885 3614.166504,926.214783 3601.025635,926.315979 
	C3600.752686,923.241821 3600.336670,920.692627 3600.329834,918.142334 
	C3600.275879,897.824219 3600.300537,877.505859 3600.297852,857.187622 
	C3600.297607,854.856079 3600.421387,852.513794 3600.245605,850.194824 
	C3599.274902,837.398926 3591.366699,828.152466 3580.002441,826.413513 
	C3567.965576,824.571655 3554.890869,831.386780 3550.795898,842.643250 
	C3548.798340,848.133545 3547.949463,854.291016 3547.834961,860.170959 
	C3547.472656,878.816711 3547.701172,897.473999 3547.700928,916.126831 
	C3547.700928,919.064392 3547.700684,922.001953 3547.700684,925.638062 
	C3534.501953,925.638062 3522.049072,925.638062 3508.943848,925.638062 
	C3508.729492,923.083679 3508.334473,920.524353 3508.328125,917.964111 
	C3508.277100,897.312866 3508.338379,876.661377 3508.262695,856.010254 
	C3508.249268,852.367310 3508.221191,848.617188 3507.397461,845.104858 
	C3505.083008,835.239197 3499.352051,828.199951 3488.894043,826.682739 
	C3478.366455,825.155334 3469.076660,827.954163 3462.350098,836.809082 
	C3456.826416,844.080444 3455.745117,852.622986 3455.718018,861.380920 
	C3455.662598,879.367432 3455.701172,897.354187 3455.700928,915.340881 
	C3455.700928,918.600159 3455.700928,921.859375 3455.700928,925.721375 
	C3442.362061,925.721375 3429.908447,925.721375 3416.872559,925.721375 
	C3416.872559,882.261047 3416.872559,839.093567 3416.872559,794.523560 
	C3428.894531,794.049500 3441.008057,794.363342 3453.552490,794.330811 
	C3454.061035,798.429016 3454.490479,801.887207 3455.024414,806.189087 
	C3484.381104,787.321228 3512.237793,786.014587 3538.693115,812.088318 
	C3541.330811,809.761292 3544.049316,806.941284 3547.171143,804.678162 
	C3566.744141,790.489136 3594.203613,787.982483 3615.924316,800.250732 
	C3627.573975,806.830750 3634.229248,817.536194 3637.197510,830.321960 
	C3638.686279,836.733215 3639.466064,843.428101 3639.592285,850.013428 
	C3639.917969,866.994446 3639.700928,883.985901 3639.700684,901.965698 
z"/>
<path fill="#027CFF" opacity="1.000000" stroke="none" 
	d="
M4657.547852,596.883057 
	C4643.710938,634.778320 4605.794434,652.053650 4567.980469,646.699341 
	C4552.169922,644.460571 4537.937500,639.539246 4524.992676,629.827332 
	C4491.541504,604.730652 4493.141602,548.458191 4524.019531,524.083374 
	C4546.466797,506.363586 4571.608887,503.165955 4598.364258,507.143585 
	C4619.210938,510.242767 4636.678223,520.030029 4648.755859,537.930725 
	C4659.958496,554.535278 4662.805176,572.730347 4658.489258,592.168335 
	C4658.201172,593.467468 4657.991211,594.783997 4657.547852,596.883057 
z"/>
<path fill="#047DFF" opacity="1.000000" stroke="none" 
	d="
M4164.282227,918.589111 
	C4163.197266,921.502136 4162.316895,923.623535 4161.335938,925.987427 
	C4148.918457,925.987427 4136.663574,925.987427 4123.711914,925.987427 
	C4114.338867,900.176880 4104.976074,874.393677 4094.852295,846.514954 
	C4084.418945,874.264526 4074.747559,899.986938 4064.989014,925.941650 
	C4052.416504,925.941650 4040.179199,925.941650 4027.204346,925.941650 
	C4011.585938,882.616577 3995.970947,839.301392 3980.002930,795.006592 
	C3992.511230,795.006592 4003.943848,795.006592 4016.767578,795.006592 
	C4026.504395,822.755188 4036.480713,851.185913 4047.151123,881.595459 
	C4050.337158,873.466064 4052.977783,867.142578 4055.307617,860.706665 
	C4062.432129,841.025330 4069.533203,821.334106 4076.421631,801.569519 
	C4078.153076,796.601440 4080.425049,793.788330 4086.335693,794.163513 
	C4094.609131,794.688660 4102.940918,794.296082 4111.934082,794.296082 
	C4122.107422,822.958374 4132.204590,851.404358 4143.090332,882.072632 
	C4154.050293,851.708069 4164.269531,823.397034 4174.601074,794.773865 
	C4185.800293,794.773865 4196.674805,794.773865 4208.918945,794.773865 
	C4194.475586,836.376587 4179.443359,877.073730 4164.282227,918.589111 
z"/>
<path fill="#057DFF" opacity="1.000000" stroke="none" 
	d="
M3797.203125,911.248169 
	C3777.754639,927.998718 3755.994141,932.132874 3732.341553,925.748596 
	C3725.514404,923.905823 3719.374023,919.520081 3712.030762,915.857117 
	C3712.030762,934.522705 3712.030762,953.484802 3712.030762,973.065674 
	C3698.380127,973.065674 3685.938721,973.065674 3672.894043,973.065674 
	C3672.894043,913.655396 3672.894043,854.577942 3672.894043,794.895996 
	C3685.086914,794.895996 3696.926025,794.895996 3709.513672,794.895996 
	C3709.946289,798.183533 3710.399170,801.625793 3710.948486,805.802612 
	C3712.588379,805.062988 3714.130859,804.639099 3715.361328,803.772278 
	C3737.290283,788.321472 3760.459717,788.879578 3783.152588,800.576721 
	C3805.447510,812.068848 3815.444336,831.865662 3816.464111,856.830444 
	C3817.307129,877.467834 3811.974609,895.565125 3797.203125,911.248169 
M3722.674072,888.451782 
	C3735.849121,900.341858 3755.026611,897.561829 3764.979736,889.428162 
	C3777.802490,878.948914 3781.377441,856.533386 3772.518311,841.109314 
	C3765.178711,828.331543 3751.442383,822.369568 3736.953857,825.673340 
	C3722.577637,828.951477 3712.790527,840.539124 3711.697266,855.255859 
	C3710.799561,867.336487 3712.666748,878.494507 3722.674072,888.451782 
z"/>
<path fill="#047DFF" opacity="1.000000" stroke="none" 
	d="
M3295.726074,819.697388 
	C3296.016602,825.521545 3299.772705,824.256409 3302.458008,824.240356 
	C3320.763916,824.131226 3339.068604,823.854187 3357.374268,823.665649 
	C3363.016113,823.607544 3368.658936,823.656616 3374.993408,823.656616 
	C3374.993408,834.334900 3374.993408,844.433838 3374.993408,855.374146 
	C3348.878174,855.374146 3323.031006,855.374146 3296.445801,855.374146 
	C3296.445801,868.323547 3296.445801,880.479675 3296.445801,894.098450 
	C3326.382568,894.630615 3356.794189,894.008423 3387.747070,894.442810 
	C3387.747070,905.070068 3387.747070,914.921570 3387.747070,924.823059 
	C3380.948730,926.714722 3270.292236,927.276611 3256.331543,925.388794 
	C3256.331543,869.344666 3256.331543,813.241638 3256.331543,756.399658 
	C3299.435059,756.399658 3341.873047,756.399658 3385.006348,756.399658 
	C3385.006348,766.375366 3385.006348,776.470093 3385.006348,787.408203 
	C3355.504150,787.408203 3326.327393,787.408203 3295.704590,787.408203 
	C3295.704590,798.365723 3295.704590,808.545349 3295.726074,819.697388 
z"/>
<path fill="#027CFF" opacity="1.000000" stroke="none" 
	d="
M4578.764648,910.838074 
	C4576.337891,916.375610 4574.253418,921.217346 4572.181641,926.028442 
	C4558.561035,926.028442 4545.621094,926.028442 4531.055176,926.028442 
	C4556.053711,868.691223 4581.578613,812.601013 4606.613281,756.064331 
	C4620.238770,756.064331 4633.493164,756.064331 4647.305664,756.064331 
	C4672.473633,812.389465 4697.627930,868.682739 4723.204590,925.922302 
	C4708.325684,925.922302 4695.077637,925.922302 4680.934570,925.922302 
	C4676.030273,914.422241 4670.996582,902.617126 4665.758789,890.333862 
	C4651.554688,890.333862 4637.606934,890.333679 4623.659668,890.333984 
	C4613.662109,890.334167 4603.656738,890.573975 4593.670898,890.232483 
	C4588.844238,890.067505 4586.261719,891.930603 4584.702148,896.271484 
	C4583.018555,900.960144 4580.986816,905.523865 4578.764648,910.838074 
M4632.883789,859.684998 
	C4639.080566,859.684998 4645.276855,859.684998 4653.224609,859.684998 
	C4644.268555,838.099243 4635.946777,818.041504 4627.624512,797.983765 
	C4617.697754,818.448669 4608.157227,837.959595 4600.759766,859.684875 
	C4611.784668,859.684875 4621.355469,859.684875 4632.883789,859.684998 
z"/>
<path fill="#047DFF" opacity="1.000000" stroke="none" 
	d="
M1424.698242,893.266968 
	C1436.540283,890.213562 1444.679443,882.813599 1453.024414,874.817017 
	C1461.554321,882.637695 1469.807861,890.205078 1478.441406,898.120911 
	C1473.126587,907.969482 1464.222534,913.420288 1455.375122,918.280334 
	C1420.563110,937.403625 1368.479858,932.964661 1339.710449,903.143005 
	C1325.397461,888.306580 1317.216064,870.817383 1315.446045,849.908020 
	C1313.702026,829.304932 1317.150635,810.191223 1328.320312,792.914429 
	C1344.856934,767.335938 1369.417236,754.874390 1399.177246,752.422791 
	C1415.874146,751.047302 1432.294556,753.092773 1448.002686,759.668274 
	C1459.908569,764.652283 1469.866699,771.990601 1478.697266,782.839417 
	C1470.411987,790.608704 1462.294189,798.220825 1453.784912,806.200134 
	C1449.700928,802.965332 1446.217041,800.050171 1442.575806,797.346741 
	C1417.198853,778.505066 1382.072266,785.940186 1366.565063,806.839417 
	C1345.390991,835.375793 1355.406982,882.467957 1393.525391,892.882568 
	C1403.588745,895.632019 1413.742798,895.614319 1424.698242,893.266968 
z"/>
<path fill="#057EFF" opacity="1.000000" stroke="none" 
	d="
M2986.019043,916.148987 
	C2944.224854,890.044495 2946.183838,820.508728 2995.667236,799.029480 
	C3019.672852,788.609497 3043.776123,789.650574 3066.362305,803.231689 
	C3085.131104,814.517456 3093.736084,832.472290 3095.624268,853.826111 
	C3096.114014,859.364136 3095.697754,864.982239 3095.697754,871.475098 
	C3062.251953,871.475098 3029.763184,871.475098 2997.119385,871.475098 
	C2999.787109,886.434509 3008.105225,893.141113 3026.781006,896.722168 
	C3041.656982,899.574585 3053.980957,893.881897 3066.173828,884.828308 
	C3069.738281,888.656067 3073.023193,892.256897 3076.390625,895.778687 
	C3079.580566,899.114746 3082.857666,902.367859 3085.939453,905.498169 
	C3072.080322,931.469299 3014.857422,936.013489 2986.019043,916.148987 
M3020.464600,822.680847 
	C3004.691650,827.677429 2997.108154,835.830933 2997.114258,847.788635 
	C3017.273193,847.788635 3037.432373,847.788635 3058.284912,847.788635 
	C3057.394775,839.821655 3053.557861,834.291443 3048.210449,829.583618 
	C3040.677490,822.951355 3031.616699,821.804932 3020.464600,822.680847 
z"/>
<path fill="#057EFF" opacity="1.000000" stroke="none" 
	d="
M4343.266602,825.047058 
	C4351.035645,839.668335 4352.760742,854.609070 4351.222656,871.477417 
	C4340.407227,871.958557 4329.547363,871.633606 4318.710449,871.692566 
	C4307.725586,871.752258 4296.739746,871.705811 4285.754395,871.705811 
	C4274.865234,871.705811 4263.976074,871.705750 4252.861816,871.705750 
	C4259.714844,899.351685 4291.232910,905.397217 4322.208008,885.019836 
	C4328.752930,891.878052 4335.479492,898.927124 4342.377441,906.155701 
	C4336.626465,914.849121 4328.802734,920.107605 4320.018555,922.980835 
	C4291.070312,932.449585 4262.790527,931.686707 4237.508301,912.793823 
	C4217.794922,898.062744 4210.743164,877.376648 4213.077637,853.119507 
	C4214.673828,836.531250 4221.023438,822.378967 4233.411133,811.115356 
	C4250.206543,795.844421 4270.081543,790.683838 4292.337402,793.180847 
	C4314.145508,795.627563 4331.422363,805.266296 4343.266602,825.047058 
M4304.816895,830.077759 
	C4293.990234,821.238037 4282.003418,819.844910 4269.374023,825.233521 
	C4259.643066,829.385254 4253.800293,836.852661 4252.058594,847.922729 
	C4273.008301,847.922729 4293.243164,847.922729 4313.726074,847.922729 
	C4314.257812,840.541504 4310.009277,835.836853 4304.816895,830.077759 
z"/>
<path fill="#057EFF" opacity="1.000000" stroke="none" 
	d="
M2065.788086,928.344849 
	C2051.425781,928.803894 2038.268677,927.671814 2025.850098,922.053467 
	C1999.658325,910.204041 1986.432129,890.157043 1985.490967,861.154114 
	C1984.502441,830.688538 2004.716431,803.124695 2034.605957,795.444580 
	C2059.495117,789.049255 2082.665771,792.269653 2102.901855,809.164001 
	C2116.411133,820.442383 2122.651855,835.496704 2124.184814,852.640503 
	C2124.708984,858.501953 2124.268066,864.449707 2124.268066,871.308472 
	C2091.073486,871.308472 2058.933594,871.308472 2026.766846,871.308472 
	C2024.971436,877.079407 2027.950562,880.483093 2030.524658,883.708801 
	C2039.690674,895.194458 2052.361328,898.481262 2066.190430,897.262085 
	C2076.554199,896.348328 2086.289551,892.876221 2094.579590,884.304199 
	C2101.498535,891.769653 2108.129150,898.924011 2115.352295,906.717712 
	C2102.250732,922.069519 2085.520264,927.435181 2065.788086,928.344849 
M2085.055176,848.189148 
	C2085.525146,846.921997 2086.625977,845.507812 2086.369873,844.410095 
	C2083.148438,830.594116 2069.748047,821.608398 2053.741211,822.333618 
	C2038.729980,823.013672 2027.375732,833.223022 2025.468628,848.289124 
	C2044.821411,848.289124 2064.104004,848.289124 2085.055176,848.189148 
z"/>
<path fill="#047DFF" opacity="1.000000" stroke="none" 
	d="
M2831.638428,891.288147 
	C2822.716797,908.502319 2809.300293,919.262817 2791.558838,924.507324 
	C2767.044922,931.753845 2743.515625,929.947998 2721.894775,915.374207 
	C2691.949463,895.188660 2684.318848,850.880981 2705.667969,821.651550 
	C2717.903809,804.899536 2734.420410,795.891724 2755.154541,793.490601 
	C2773.248535,791.395203 2790.490234,793.468811 2806.032959,802.719360 
	C2836.634277,820.932373 2847.026367,857.350098 2831.638428,891.288147 
M2744.382080,888.744568 
	C2745.998535,889.905884 2747.533203,891.206421 2749.243896,892.206848 
	C2766.539062,902.323181 2789.399170,894.639160 2796.625244,876.020996 
	C2800.594482,865.794922 2800.643066,855.401062 2796.444824,845.024963 
	C2791.144775,831.925049 2776.341797,822.611389 2763.303711,824.504028 
	C2747.264893,826.832214 2735.319580,838.602722 2733.697266,853.545654 
	C2732.318848,866.247009 2734.269775,877.972229 2744.382080,888.744568 
z"/>
<path fill="#047DFF" opacity="1.000000" stroke="none" 
	d="
M3842.651367,822.886353 
	C3857.732178,801.530640 3878.742920,792.653625 3903.145020,792.553772 
	C3926.154053,792.459656 3947.136230,799.155518 3962.243652,818.227722 
	C3993.096680,857.178406 3973.660156,914.179565 3925.160156,925.927979 
	C3901.941650,931.552246 3879.771729,928.741638 3859.291260,915.098450 
	C3832.182129,897.039429 3825.671143,858.940063 3837.195068,833.236938 
	C3838.690186,829.902771 3840.524902,826.720947 3842.651367,822.886353 
M3929.274414,835.892883 
	C3926.426025,833.631531 3923.794434,831.003784 3920.693604,829.168823 
	C3901.964600,818.085266 3879.955811,827.968262 3873.432129,846.423462 
	C3870.567871,854.526306 3870.778320,862.786743 3872.283936,870.887878 
	C3874.688477,883.825378 3885.364746,893.964966 3897.544922,895.976624 
	C3912.386475,898.427856 3925.555420,892.885437 3932.393555,880.354675 
	C3940.409668,865.665955 3939.198975,851.077026 3929.274414,835.892883 
z"/>
<path fill="#047DFF" opacity="1.000000" stroke="none" 
	d="
M1509.320801,910.764893 
	C1482.651367,887.711426 1480.821045,843.230774 1502.073853,817.863159 
	C1509.323608,809.209412 1518.142090,802.747864 1528.411621,798.656128 
	C1549.322632,790.324463 1570.699097,790.195435 1591.515991,798.625671 
	C1627.999390,813.400208 1638.711304,850.582397 1629.066650,881.976929 
	C1620.604492,909.521667 1599.868408,923.322021 1572.609619,927.518799 
	C1549.685913,931.048157 1528.234131,926.441040 1509.320801,910.764893 
M1564.280151,896.274048 
	C1577.902466,894.546387 1586.649048,886.779236 1591.017578,874.072510 
	C1593.990967,865.423645 1593.886719,856.467957 1591.343872,847.746277 
	C1586.730347,831.922852 1569.441528,821.667725 1554.096436,825.094238 
	C1533.148438,829.771851 1525.333618,846.604797 1526.683228,863.378235 
	C1528.446411,885.289917 1541.187622,896.227905 1564.280151,896.274048 
z"/>
<path fill="#057DFF" opacity="1.000000" stroke="none" 
	d="
M1791.699463,846.540222 
	C1791.699463,873.391541 1791.699463,899.303345 1791.699463,925.773071 
	C1778.877808,925.773071 1767.021729,925.773071 1754.397095,925.773071 
	C1754.159790,923.385620 1753.701050,920.862488 1753.691406,918.337646 
	C1753.626831,901.340637 1753.816162,884.341125 1753.580322,867.347107 
	C1753.483887,860.403320 1752.893799,853.418640 1751.888062,846.546265 
	C1750.392334,836.326782 1744.457642,829.879883 1734.268188,827.259216 
	C1716.621216,822.720581 1699.674316,833.522949 1696.546631,851.735962 
	C1695.818970,855.973511 1695.757324,860.358948 1695.735229,864.678162 
	C1695.648560,881.674988 1695.699707,898.672424 1695.699707,915.669678 
	C1695.699707,918.903809 1695.699707,922.137878 1695.699707,925.742493 
	C1682.134888,925.742493 1669.677002,925.742493 1656.761475,925.742493 
	C1656.761475,881.967468 1656.761475,838.792114 1656.761475,794.954468 
	C1669.262207,794.954468 1681.391846,794.954468 1693.882080,794.954468 
	C1694.134277,798.844177 1694.369141,802.466980 1694.657104,806.909302 
	C1696.832642,805.736328 1698.817627,804.881592 1700.571289,803.687500 
	C1719.326294,790.918518 1739.540527,789.238831 1760.462158,796.681580 
	C1776.459473,802.372559 1785.639404,814.704468 1789.723877,830.846680 
	C1790.932983,835.625427 1791.070801,840.675171 1791.699463,846.540222 
z"/>
<path fill="#027CFF" opacity="1.000000" stroke="none" 
	d="
M1914.562378,793.294678 
	C1938.451782,795.397766 1958.242310,811.550293 1959.645630,839.317993 
	C1961.086548,867.830505 1959.965332,896.472412 1959.965332,925.690918 
	C1947.455566,925.690918 1935.300171,925.690918 1922.391846,925.690918 
	C1922.162476,923.335938 1921.710571,920.809753 1921.702881,918.282166 
	C1921.643555,898.624146 1921.669922,878.965942 1921.669556,859.307739 
	C1921.669556,857.308594 1921.731445,855.307129 1921.658325,853.310669 
	C1921.108887,838.324219 1913.005981,828.292358 1899.949097,826.392212 
	C1885.222046,824.249023 1871.008057,832.480225 1866.915894,846.156067 
	C1865.323486,851.478333 1864.516357,857.215881 1864.439941,862.779175 
	C1864.156860,883.419189 1864.327271,904.065430 1864.327271,926.086426 
	C1851.584351,926.513062 1839.187744,926.398865 1826.223633,926.117737 
	C1826.223633,882.248535 1826.223633,839.066650 1826.223633,794.659119 
	C1837.919678,793.955078 1849.673096,794.407837 1861.827026,794.357788 
	C1862.136719,799.163086 1862.388916,803.074158 1862.739624,808.514771 
	C1878.008179,795.983582 1894.809326,790.612183 1914.562378,793.294678 
z"/>
<path fill="#047DFF" opacity="1.000000" stroke="none" 
	d="
M2145.371094,831.721191 
	C2156.608154,808.808289 2175.260986,797.716492 2198.953369,793.661133 
	C2215.476562,790.832764 2231.383545,792.623291 2246.507812,799.832581 
	C2256.317871,804.508789 2266.378906,812.214539 2272.034424,826.709839 
	C2267.364746,829.209778 2262.514648,831.789001 2257.681396,834.398987 
	C2252.754395,837.059387 2247.843750,839.750000 2242.206299,842.819214 
	C2235.451172,831.348694 2225.747070,824.786621 2212.930176,824.495422 
	C2203.705078,824.285950 2195.102783,827.458801 2188.587891,834.266418 
	C2174.260254,849.237915 2175.883789,874.821045 2189.276855,887.658020 
	C2204.186035,901.948059 2225.918213,898.537476 2242.895996,878.782654 
	C2252.421631,883.915955 2262.182861,889.176208 2272.168701,894.557373 
	C2266.690918,907.824036 2257.643066,916.793030 2245.261719,922.033386 
	C2221.908936,931.917297 2198.144043,931.509338 2175.706299,920.266052 
	C2145.881348,905.321106 2134.629150,876.647766 2141.305908,843.736328 
	C2142.091064,839.865112 2143.750732,836.171326 2145.371094,831.721191 
z"/>
<path fill="#047DFF" opacity="1.000000" stroke="none" 
	d="
M2353.651367,928.335571 
	C2346.131104,927.799622 2339.367920,928.020935 2332.978516,926.582275 
	C2312.379883,921.944275 2300.502930,906.896729 2300.331543,885.933044 
	C2300.203857,870.291016 2300.306396,854.647156 2300.306396,839.004089 
	C2300.306396,835.714966 2300.306396,832.425842 2300.306396,828.166992 
	C2293.647217,828.166992 2287.496094,828.166992 2280.207275,828.166992 
	C2279.217529,817.860229 2279.680664,808.431519 2279.957764,798.028442 
	C2286.433838,798.028442 2292.592285,798.028442 2299.967285,798.028442 
	C2299.967285,787.028198 2299.967285,776.943176 2299.967285,766.273926 
	C2313.036377,766.273926 2324.877441,766.273926 2337.962158,766.273926 
	C2337.962158,776.094971 2337.962158,786.191589 2337.962158,797.397339 
	C2349.612549,797.397339 2360.073242,797.397339 2371.102051,797.397339 
	C2371.102051,807.706055 2371.102051,816.887268 2371.102051,827.171875 
	C2360.734375,827.171875 2350.258301,827.171875 2339.129150,827.171875 
	C2338.802979,830.730652 2338.382812,833.265991 2338.369385,835.803528 
	C2338.301270,848.783569 2338.337891,861.764099 2338.337891,874.744507 
	C2338.337891,875.410156 2338.318115,876.076721 2338.343750,876.741394 
	C2339.054443,895.106506 2348.925049,901.529419 2366.244629,894.897400 
	C2367.427734,894.444336 2368.603027,893.970886 2370.711670,893.141174 
	C2374.127441,902.097961 2377.377930,910.621887 2380.752197,919.470581 
	C2372.929688,926.435303 2363.767334,927.419800 2353.651367,928.335571 
z"/>
<path fill="#057DFF" opacity="1.000000" stroke="none" 
	d="
M4818.232422,926.338623 
	C4814.560059,926.301514 4811.678223,926.563843 4811.700195,922.536804 
	C4811.712402,920.205322 4811.659180,917.873596 4811.659180,915.541992 
	C4811.656250,886.561523 4811.832031,857.579590 4811.604004,828.600952 
	C4811.413086,804.334167 4810.743652,780.071167 4810.305664,755.806213 
	C4810.245605,752.502869 4810.297363,749.197510 4810.297363,744.478027 
	C4823.260742,744.104614 4835.718262,744.358948 4848.020996,744.326294 
	C4850.066406,751.985962 4850.617188,911.586975 4848.639648,926.341797 
	C4838.964844,926.341797 4829.087891,926.341797 4818.232422,926.338623 
z"/>
<path fill="#017BFF" opacity="1.000000" stroke="none" 
	d="
M4776.322266,758.170410 
	C4776.322754,814.389343 4776.322754,869.627441 4776.322754,925.593018 
	C4763.662109,925.593018 4751.503418,925.593018 4739.216797,925.593018 
	C4737.202148,918.985535 4736.274902,767.926392 4738.295898,745.061829 
	C4750.329590,745.061829 4762.461914,745.061829 4775.985352,745.061829 
	C4776.091309,748.886108 4776.207031,753.037842 4776.322266,758.170410 
z"/>
<path fill="#057EFF" opacity="1.000000" stroke="none" 
	d="
M4376.299316,911.823547 
	C4376.299316,872.580322 4376.299316,834.317383 4376.299316,794.696045 
	C4388.716797,793.879395 4400.749512,794.464478 4413.155762,794.325195 
	C4413.500488,799.286560 4413.771973,803.195007 4414.149902,808.625793 
	C4426.939941,797.644897 4441.088867,792.432251 4457.737793,792.579956 
	C4457.737793,804.436646 4457.737793,815.897461 4457.737793,828.346802 
	C4454.499512,828.346802 4451.599609,828.308838 4448.700684,828.352905 
	C4428.222168,828.664246 4415.954590,840.830017 4415.741699,861.420227 
	C4415.551758,879.723938 4415.700684,898.031189 4415.700684,916.336853 
	C4415.700684,919.270935 4415.700684,922.204956 4415.700684,925.717407 
	C4402.375488,925.717407 4389.928223,925.717407 4376.299316,925.717407 
	C4376.299316,921.258423 4376.299316,917.031128 4376.299316,911.823547 
z"/>
<path fill="#027CFF" opacity="1.000000" stroke="none" 
	d="
M2863.669189,862.000000 
	C2863.669189,839.112854 2863.669189,817.225708 2863.669189,794.830078 
	C2876.203613,794.830078 2887.700928,794.830078 2899.938965,794.830078 
	C2900.136719,799.330078 2900.322510,803.559082 2900.520996,808.078857 
	C2907.328125,804.187073 2913.686768,799.459656 2920.814941,796.780090 
	C2928.096680,794.042725 2936.134277,793.315491 2945.341553,791.395325 
	C2946.002441,804.164246 2945.531250,815.574890 2945.693604,827.602905 
	C2942.437256,827.888428 2939.893066,828.359619 2937.362305,828.294556 
	C2914.996338,827.719482 2902.296631,841.688416 2902.325684,863.676453 
	C2902.350098,881.991150 2902.330078,900.305908 2902.329834,918.620605 
	C2902.329834,920.856567 2902.329834,923.092529 2902.329834,925.824219 
	C2889.193359,925.824219 2877.042969,925.824219 2863.669189,925.824219 
	C2863.669189,904.713074 2863.669189,883.856506 2863.669189,862.000000 
z"/>
<path fill="#047DFF" opacity="1.000000" stroke="none" 
	d="
M3112.829590,913.931763 
	C3112.198486,910.227905 3111.718750,907.261536 3111.694824,904.291443 
	C3111.570801,888.967712 3121.526611,879.538452 3136.885498,880.302734 
	C3151.012207,881.005737 3160.335693,892.051208 3158.532959,906.639954 
	C3157.810791,912.486145 3156.389160,918.379700 3154.342529,923.901917 
	C3149.393311,937.255005 3143.888428,950.402100 3138.531738,963.822510 
	C3130.127441,963.822510 3122.304932,963.822510 3113.671387,963.822510 
	C3117.076660,951.040894 3120.302002,938.935669 3123.363770,927.442871 
	C3119.704590,922.847534 3116.447754,918.757568 3112.829590,913.931763 
z"/>
<path fill="#0072EA" opacity="1.000000" stroke="none" 
	d="
M5174.762207,641.055176 
	C5173.955078,478.822540 5173.969238,316.388763 5173.972656,153.024109 
	C5174.731934,152.965927 5176.067871,153.779434 5176.166016,154.722229 
	C5176.476562,157.687500 5176.342773,160.701263 5176.343262,163.696228 
	C5176.347168,319.127991 5176.351562,474.559753 5176.314453,629.991516 
	C5176.313965,633.612427 5175.837891,637.233215 5174.762207,641.055176 
z"/>
<path fill="#405F80" opacity="1.000000" stroke="none" 
	d="
M4723.113281,152.858154 
	C4723.860352,153.733658 4723.980469,155.062424 4723.980469,156.391190 
	C4723.966309,317.074005 4723.942871,477.756805 4723.810059,639.395508 
	C4723.132812,636.908691 4722.074707,633.466431 4722.071777,630.023193 
	C4721.981934,536.404846 4722.000000,442.786530 4722.000000,349.168182 
	C4722.000000,287.533356 4721.992188,225.898514 4722.018066,164.263672 
	C4722.019531,160.612869 4722.286621,156.962158 4723.113281,152.858154 
z"/>
<path fill="#FCFEFF" opacity="1.000000" stroke="none" 
	d="
M3789.055908,301.783569 
	C3789.149658,312.788818 3790.006592,323.182281 3788.415039,333.186157 
	C3785.514160,351.417175 3772.851318,361.191040 3755.761963,365.376892 
	C3749.070312,367.015900 3741.971436,367.494507 3735.046143,367.583038 
	C3713.786377,367.854889 3692.520996,367.682007 3671.435303,367.682007 
	C3669.272461,359.968811 3668.514893,286.876862 3670.306152,267.016083 
	C3672.690186,266.792877 3675.219727,266.357880 3677.750488,266.350494 
	C3697.392822,266.293152 3717.040527,266.035614 3736.675293,266.418945 
	C3749.398438,266.667389 3761.739502,269.066162 3772.417969,276.830231 
	C3780.798828,282.923706 3786.688477,290.643860 3789.055908,301.783569 
z"/>
<path fill="#FCFEFF" opacity="1.000000" stroke="none" 
	d="
M3184.498535,444.848938 
	C3200.206787,397.497437 3215.630615,350.914917 3231.054443,304.332428 
	C3231.748535,304.310974 3232.442383,304.289520 3233.136230,304.268066 
	C3249.935059,354.394104 3266.733643,404.520142 3283.539062,454.666321 
	C3276.115234,456.709869 3192.449219,457.089752 3181.700684,455.091766 
	C3182.546875,451.902771 3183.380859,448.760376 3184.498535,444.848938 
z"/>
<path fill="#FCFEFF" opacity="1.000000" stroke="none" 
	d="
M4175.963867,415.809204 
	C4183.737793,392.029633 4191.352051,369.030579 4198.877930,346.002686 
	C4203.509277,331.831299 4208.006348,317.615936 4214.163574,303.182770 
	C4231.168945,353.681824 4248.174316,404.180878 4265.517090,455.682343 
	C4230.730469,455.682343 4197.354980,455.682343 4162.623535,455.682343 
	C4167.139648,442.245636 4171.452637,429.411560 4175.963867,415.809204 
z"/>
<path fill="#FBFDFF" opacity="1.000000" stroke="none" 
	d="
M3722.063232,888.032471 
	C3712.666748,878.494507 3710.799561,867.336487 3711.697266,855.255859 
	C3712.790527,840.539124 3722.577637,828.951477 3736.953857,825.673340 
	C3751.442383,822.369568 3765.178711,828.331543 3772.518311,841.109314 
	C3781.377441,856.533386 3777.802490,878.948914 3764.979736,889.428162 
	C3755.026611,897.561829 3735.849121,900.341858 3722.063232,888.032471 
z"/>
<path fill="#FBFDFF" opacity="1.000000" stroke="none" 
	d="
M4631.905273,859.684937 
	C4621.355469,859.684875 4611.784668,859.684875 4600.759766,859.684875 
	C4608.157227,837.959595 4617.697754,818.448669 4627.624512,797.983765 
	C4635.946777,818.041504 4644.268555,838.099243 4653.224609,859.684998 
	C4645.276855,859.684998 4639.080566,859.684998 4631.905273,859.684937 
z"/>
<path fill="#FBFDFF" opacity="1.000000" stroke="none" 
	d="
M3021.275879,822.536987 
	C3031.616699,821.804932 3040.677490,822.951355 3048.210449,829.583618 
	C3053.557861,834.291443 3057.394775,839.821655 3058.284912,847.788635 
	C3037.432373,847.788635 3017.273193,847.788635 2997.112061,847.789673 
	C2997.108154,835.830933 3004.691650,827.677429 3021.275879,822.536987 
z"/>
<path fill="#FBFDFF" opacity="1.000000" stroke="none" 
	d="
M4305.382324,830.562317 
	C4310.009277,835.836853 4314.257812,840.541504 4313.726074,847.922729 
	C4293.243164,847.922729 4273.008301,847.922729 4252.058594,847.922729 
	C4253.800293,836.852661 4259.643066,829.385254 4269.374023,825.233521 
	C4282.003418,819.844910 4293.990234,821.238037 4305.382324,830.562317 
z"/>
<path fill="#FBFDFF" opacity="1.000000" stroke="none" 
	d="
M2084.220947,848.239136 
	C2064.104004,848.289124 2044.821411,848.289124 2025.468628,848.289124 
	C2027.375732,833.223022 2038.729980,823.013672 2053.741211,822.333618 
	C2069.748047,821.608398 2083.148438,830.594116 2086.369873,844.410095 
	C2086.625977,845.507812 2085.525146,846.921997 2084.220947,848.239136 
z"/>
<path fill="#FBFDFF" opacity="1.000000" stroke="none" 
	d="
M2743.829834,888.243774 
	C2734.269775,877.972229 2732.318848,866.247009 2733.697266,853.545654 
	C2735.319580,838.602722 2747.264893,826.832214 2763.303711,824.504028 
	C2776.341797,822.611389 2791.144775,831.925049 2796.444824,845.024963 
	C2800.643066,855.401062 2800.594482,865.794922 2796.625244,876.020996 
	C2789.399170,894.639160 2766.539062,902.323181 2749.243896,892.206848 
	C2747.533203,891.206421 2745.998535,889.905884 2743.829834,888.243774 
z"/>
<path fill="#FBFDFF" opacity="1.000000" stroke="none" 
	d="
M3929.726074,836.482666 
	C3939.198975,851.077026 3940.409668,865.665955 3932.393555,880.354675 
	C3925.555420,892.885437 3912.386475,898.427856 3897.544922,895.976624 
	C3885.364746,893.964966 3874.688477,883.825378 3872.283936,870.887878 
	C3870.778320,862.786743 3870.567871,854.526306 3873.432129,846.423462 
	C3879.955811,827.968262 3901.964600,818.085266 3920.693604,829.168823 
	C3923.794434,831.003784 3926.426025,833.631531 3929.726074,836.482666 
z"/>
<path fill="#FBFDFF" opacity="1.000000" stroke="none" 
	d="
M1563.409912,896.291260 
	C1541.187622,896.227905 1528.446411,885.289917 1526.683228,863.378235 
	C1525.333618,846.604797 1533.148438,829.771851 1554.096436,825.094238 
	C1569.441528,821.667725 1586.730347,831.922852 1591.343872,847.746277 
	C1593.886719,856.467957 1593.990967,865.423645 1591.017578,874.072510 
	C1586.649048,886.779236 1577.902466,894.546387 1563.409912,896.291260 
z"/>
</svg>